<svg xmlns="http://www.w3.org/2000/svg" viewBox="0 0 342.81 243.29">
  <title>globalorientation</title>
  <g id="f43cf05e-852d-422b-ae27-9c883b7aee22" data-name="Layer 2">
    <g id="ee82b0fa-8758-4349-9388-f5583cf83c59" data-name="Layer 1">
      <path d="M106.11,48.69c9.13-8.13,23.46-9.79,36.49-9.14,41,2,78,21.81,109.93,44.18,11.59,8.11,23,16.83,30.5,28,15.3,22.7,10.76,54.16-10.51,72.85-7.24,6.38-16,11.25-25,15.57-16,7.69-33.3,13.86-51.48,15.62-13,1.25-26.09.23-39-1.51-36-4.89-71.35-15.69-101-34.17-13-8.11-25.25-18.18-30.6-31.28s-1.93-29.72,11.34-37.48c5.49-3.21,12-4.66,18.47-6,9.45-2,19.06-4,27.59-8.05,8.8-4.22,19.25-12.34,17.51-21.66C98.49,65.59,97,56.8,106.11,48.69Z" fill="#00897b" opacity="0.1" style="isolation: isolate"/>
      <path d="M56.73,0,25.81,16.75a7.87,7.87,0,1,1-13.61,7.9c-.08-.13-.15-.27-.22-.41L1.43,30,28.75,80.38l55.3-29.95Z" fill="#f2f2f2"/>
      <circle cx="18.53" cy="20.7" r="6.38" fill="#00897b"/>
      <path d="M134.39,135l33.43-10.91a7.87,7.87,0,1,1,14.81-5.32l.15.44,11.4-3.72L176.39,61,116.6,80.47Z" fill="#f2f2f2"/>
      <circle cx="175.69" cy="121.51" r="6.38" fill="#00897b"/>
      <rect x="22.63" y="29.91" width="154.38" height="70.14" fill="#3f3d56"/>
      <rect x="25.17" y="32.46" width="149.28" height="63.67" fill="#fff"/>
      <rect x="144.78" y="93.09" width="14.5" height="4.9" fill="#3f3d56"/>
      <rect x="133.42" y="96.82" width="10.58" height="1.37" fill="#00897b"/>
      <polyline points="37.32 56.55 94.33 56.55 103.17 60.86 117.25 67.72 126.46 50.48 152.52 50.48" fill="none" stroke="#3f3d56" stroke-miterlimit="10" stroke-width="0.39"/>
      <polyline points="59.74 56.55 63.97 66.55 74.35 66.55" fill="none" stroke="#3f3d56" stroke-miterlimit="10" stroke-width="0.39"/>
      <polyline points="75.58 56.55 90.02 48.72 100.21 48.72" fill="none" stroke="#3f3d56" stroke-miterlimit="10" stroke-width="0.39"/>
      <circle cx="59.66" cy="56.56" r="1.76" fill="#00897b"/>
      <circle cx="76.11" cy="56.56" r="1.76" fill="#00897b"/>
      <polyline points="103.15 60.87 104.32 78.3 114.51 78.3" fill="none" stroke="#3f3d56" stroke-miterlimit="10" stroke-width="0.39"/>
      <polyline points="122.77 57.4 111.57 48.72 122.15 48.72" fill="none" stroke="#3f3d56" stroke-miterlimit="10" stroke-width="0.39"/>
      <polyline points="141.26 50.48 152.13 59.1 162.31 59.1" fill="none" stroke="#3f3d56" stroke-miterlimit="10" stroke-width="0.39"/>
      <circle cx="103.15" cy="60.87" r="1.76" fill="#00897b"/>
      <circle cx="141.15" cy="50.48" r="1.76" fill="#00897b"/>
      <circle cx="122.74" cy="57.34" r="1.76" fill="#00897b"/>
      <line x1="64.16" y1="68.11" x2="74.35" y2="68.11" fill="none" stroke="#3f3d56" stroke-miterlimit="10" stroke-width="0.39"/>
      <circle cx="158.6" cy="14.8" r="2.89" fill="none" stroke="#3f3d56" stroke-miterlimit="10" stroke-width="0.39"/>
      <ellipse cx="29.78" cy="145.4" rx="29.78" ry="5.49" fill="#f2f2f2"/>
      <polygon points="50.23 96.71 44.92 99.39 45.26 100.08 50.57 97.4 50.23 96.71" fill="#00897b"/>
      <path d="M49.37,91.73l-.24,1.43s.36,9.9-2.27,6.8S46,92.68,46,92.68l.72-1.19Z" fill="#fbbebe"/>
      <path d="M34.09,45.9a47.44,47.44,0,0,1-.71,5.25c-.24.24,3.58,4.78,3.58,4.78l3.34-3.1s-.24-4.54.47-5.49S34.09,45.9,34.09,45.9Z" fill="#fbbebe"/>
      <path d="M34.09,45.9a47.44,47.44,0,0,1-.71,5.25c-.24.24,3.58,4.78,3.58,4.78l3.34-3.1s-.24-4.54.47-5.49S34.09,45.9,34.09,45.9Z" opacity="0.1" style="isolation: isolate"/>
      <polygon points="25.26 137.31 25.26 141.61 23.59 141.85 21.2 141.13 21.92 136.6 25.26 137.31" fill="#3f3d56"/>
      <path d="M23.11,139.46s-.71-1.91-1.91-1.67-1.43,1.67-1.43,1.67-.95,3.58-2.39,4.77-2.86,4.3,0,4.78,5.26-.72,5.26-1a2.89,2.89,0,0,1,1.9-1.91c1.2-.23,2.15-.47,2.15-1.43A3.81,3.81,0,0,0,26,142.8s-.24-4.52-.72-3.93a4.88,4.88,0,0,0-.72,1.55Z" fill="#2f2e41"/>
      <polygon points="35.52 135.17 34.57 138.75 36.95 139.22 38.15 138.03 38.39 134.93 35.52 135.17" fill="#3f3d56"/>
      <path d="M35.28,138.27a3.91,3.91,0,0,1,1.44-.72h.71s0-1.67,1.2-1.67.95,1.19.95,1.19,2.63,4.06,3.34,4.78,4.54,2.86,1.43,3.82-5.25,1-6.68-.72a7,7,0,0,0-2.39-.72c-1,0-2.14-.47-2.14-1.19a7.34,7.34,0,0,1,.71-2.15s.48-4.29.72-3.82S35.28,138.27,35.28,138.27Z" fill="#2f2e41"/>
      <path d="M25,80.27v7.88s-2.62,15.27-2.62,20.28-4.06,28.88-2.15,29.36,6.44,1.19,6.68.48,1.91-23.39,2.15-23.63,5.25-19.09,5.25-19.09l1,.24.48,21.48s-2.38,19.33-1.19,19.33,6.2-.24,6.2-1.67S43.4,107,43.4,107s3.1-21,1.91-23.15a7.86,7.86,0,0,1-1.19-3.34Z" fill="#2f2e41"/>
      <circle cx="38.03" cy="44.83" r="4.77" fill="#fbbebe"/>
      <path d="M37,53.06s-3-2.5-3.23-3.46a11.89,11.89,0,0,0-1.55,1.79c0,.24-6.68,1-8.35,2.87s-3.1,6-3.1,6l4.05,7.64s.24,4.3.24,4.77-1.19,8.12-.71,8.36,5.25,2.62,9.3,2.15,8.12-1.2,9.31-1.2,2.15.48,2.15,0-.72-1.43-.72-1.91-.23-1.67-.23-2.38-.48-1.91-.48-2.87,5.25-13.84,5.25-13.84a7.61,7.61,0,0,0-4.06-6c-3.82-1.91-4.29-2.62-4.29-2.62s-.08-1.43-.28-1.43-.92,2.14-2.83,2.38Z" fill="#d0cde1"/>
      <polygon points="24.07 84.81 25.74 87.43 30.03 86.48 26.93 82.9 24.07 84.81" fill="#fbbebe"/>
      <path d="M47.46,59l1.43,1.91s2.86,13.84,2.39,18.85-1,8.84-1,8.84,1,3.58.24,3.58-5,.23-5-.48.47-5.25.47-5.25L44.83,76,42.21,72.4Z" fill="#d0cde1"/>
      <path d="M34.79,42.51a4.17,4.17,0,0,1,.94-.07c.37-.07.7-.34,1.07-.3a1.78,1.78,0,0,1,.51.16.63.63,0,0,0,.52,0,.29.29,0,0,0,.14-.39.05.05,0,0,0,0,0,1.46,1.46,0,0,0,.85-.37.61.61,0,0,1,.16-.12.56.56,0,0,1,.42.06l.55.26a.68.68,0,0,1,.31.22c.06.1.07.24.17.31s.29,0,.44.06a.58.58,0,0,1,.52.56c0,.16-.06.36.06.46s.18,0,.27.08.22.4.19.64,0,.55.21.62.33,0,.5-.08a1.21,1.21,0,0,1,.71.24.64.64,0,0,0,.72,0,.68.68,0,0,0,.12-.67,3.62,3.62,0,0,0-.35-.95.67.67,0,0,1-.1-.3.57.57,0,0,1,.25-.37,1.58,1.58,0,0,0,.68-.77,3.39,3.39,0,0,0,0-.78,4.17,4.17,0,0,0,.07-.93c-.1-.56-.73-.83-1.13-1.24-.55-.55-.73-1.44-1.38-1.87a6.87,6.87,0,0,0-1.8-.5c-.65-.22-1.18-.72-1.82-1a2.56,2.56,0,0,0-2.16.19,2.05,2.05,0,0,1-.64.33,2.26,2.26,0,0,1-.58,0,2.2,2.2,0,0,0-1.1.23.63.63,0,0,0-.31.27c-.11.25.06.66-.2.78s-.25,0-.38,0a.78.78,0,0,0-.58.45,2.08,2.08,0,0,1-.4.65c-.31.27-.87.32-.95.72a2.3,2.3,0,0,0,0,.52c0,.35-.41.63-.39,1s.55.61.69,1a1.51,1.51,0,0,1-.13.92.8.8,0,0,0,.12.88c.1.07.23.1.33.18.26.18.25.56.22.88a.46.46,0,0,0,.1.39.37.37,0,0,0,.29,0,1.2,1.2,0,0,0,.74-.56c.09-.14.1-.26.25-.33s.23,0,.34-.07C34.35,43.65,34.17,42.77,34.79,42.51Z" fill="#2f2e41"/>
      <path d="M21.44,59.51l-.71.71S16.43,73.11,17.86,76s4.3,10,5.25,9.78a17,17,0,0,0,4.3-2.62c0-.24-4.06-6.93-4.06-6.93s-.48-1.43-.24-1.67.24,0,0-.47-.24,0,.24-.48.48-.48.48-.72,1.43-6.2,1.43-6.2Z" fill="#d0cde1"/>
      <polygon points="25.14 87.55 30.39 85.88 31.11 87.55 25.38 88.75 25.14 87.55" fill="#2f2e41"/>
      <polygon points="25.14 87.55 30.39 85.88 31.11 87.55 25.38 88.75 25.14 87.55" opacity="0.1" style="isolation: isolate"/>
      <polygon points="32.3 51.51 36.36 54.85 36.84 54.14 32.3 51.51" opacity="0.1" style="isolation: isolate"/>
      <polygon points="40.42 52.47 37.55 54.14 37.79 54.85 40.42 52.47" opacity="0.1" style="isolation: isolate"/>
      <g>
        <path d="M342.39,183.23A54.5,54.5,0,0,1,337,202.09c-3.41,6.58-9.26,9.23-14.48,12a33.2,33.2,0,0,1-4.7,2c-9.5,3.3-20.14,2.42-28.49.68a112.24,112.24,0,0,0-17.8-2.25c-1.7-.08-3.41-.11-5.12-.11-2.63,0-50.09.9-61.64-22.49a58.7,58.7,0,0,1-5.51-21.41c-2-24.29,8.94-40.24,23-50.67,26.66-19.73,63.19-18.9,89.46,1.35C329.28,134.72,345.66,155.13,342.39,183.23Z" fill="#3f3d56"/>
        <path d="M308.16,161.38c-7.39-5.53-19-10.76-31.78-14.35-11.65-3.27-23-4.84-32-4.44l0-1.05c9.09-.4,20.58,1.19,32.34,4.48,12.92,3.62,24.62,8.91,32.12,14.52Z" fill="#f2f2f2"/>
        <path d="M307.39,165.63a34.81,34.81,0,0,1-3,14.22c-.17.38-.34.75-.52,1.11a35,35,0,0,1-66.36-15.33c0-.81,0-1.61.08-2.4,0-.41.06-.81.1-1.21a34.95,34.95,0,0,1,69.71,3.61Z" fill="#00897b"/>
        <path d="M304.38,179.85c-.17.38-.34.75-.52,1.11-1,.11-2.1.2-3.22.25q-1.41.06-2.88.06a113.32,113.32,0,0,1-29.46-4.54c-11.76-3.3-22.4-7.91-30-13l-.76-.51c0-.41.06-.81.1-1.21l1.24.86c7.47,5,18,9.57,29.66,12.84a112,112,0,0,0,29.17,4.5c1,0,1.92,0,2.84-.06C301.93,180.1,303.19,180,304.38,179.85Z" opacity="0.1" style="isolation: isolate"/>
        <path d="M297.76,180.43a112.89,112.89,0,0,1-29.46-4.54c-11.76-3.3-22.4-7.91-30-13-7.72-5.18-11.34-10.29-10.19-14.38s6.89-6.57,16.18-7l0,1.05a32,32,0,0,0-10.5,1.92c-2.63,1.07-4.21,2.52-4.71,4.3s.1,3.85,1.78,6.13a32.29,32.29,0,0,0,8,7.1c7.47,5,18,9.58,29.66,12.84a112.07,112.07,0,0,0,29.17,4.51c1,0,1.92,0,2.84-.07a32.25,32.25,0,0,0,10.5-1.91c2.63-1.08,4.21-2.53,4.72-4.31.89-3.2-1.82-7.37-7.65-11.72l.63-.84a27.42,27.42,0,0,1,6.6,6.56c1.47,2.27,1.95,4.39,1.42,6.28-1.14,4.09-6.89,6.57-16.17,7Q299.23,180.43,297.76,180.43Z" fill="#f2f2f2"/>
        <circle cx="273.37" cy="123.98" r="0.4" fill="#f2f2f2"/>
        <circle cx="220.24" cy="141.07" r="0.4" fill="#f2f2f2"/>
        <circle cx="218.77" cy="168.04" r="0.4" fill="#f2f2f2"/>
        <circle cx="300.47" cy="126.38" r="0.27" fill="#f2f2f2"/>
        <circle cx="332.64" cy="164.03" r="0.27" fill="#f2f2f2"/>
        <circle cx="317.96" cy="151.75" r="0.27" fill="#f2f2f2"/>
        <circle cx="244.4" cy="132.39" r="0.27" fill="#f2f2f2"/>
        <circle cx="317.02" cy="160.43" r="0.27" fill="#f2f2f2"/>
        <circle cx="221.98" cy="187.26" r="0.27" fill="#f2f2f2"/>
        <circle cx="237.86" cy="198.21" r="0.27" fill="#f2f2f2"/>
        <polygon points="260.96 112.8 260.59 112.8 260.59 112.44 260.39 112.44 260.39 112.8 260.02 112.8 260.02 113 260.39 113 260.39 113.37 260.59 113.37 260.59 113 260.96 113 260.96 112.8" fill="#f2f2f2"/>
        <polygon points="300.74 203.58 300.37 203.58 300.37 203.21 300.17 203.21 300.17 203.58 299.8 203.58 299.8 203.78 300.17 203.78 300.17 204.14 300.37 204.14 300.37 203.78 300.74 203.78 300.74 203.58" fill="#f2f2f2"/>
        <polygon points="325.43 198.1 325.06 198.1 325.06 197.74 324.87 197.74 324.87 198.1 324.5 198.1 324.5 198.3 324.87 198.3 324.87 198.67 325.06 198.67 325.06 198.3 325.43 198.3 325.43 198.1" fill="#f2f2f2"/>
        <circle cx="272.97" cy="138.27" r="2.94" fill="#3f3d56"/>
        <circle cx="250.41" cy="159.76" r="2.94" fill="#3f3d56"/>
        <circle cx="282.85" cy="189.26" r="2.94" fill="#3f3d56"/>
        <circle cx="272.97" cy="164.3" r="2.94" fill="#3f3d56"/>
        <circle cx="251.88" cy="180.45" r="2.94" fill="#3f3d56"/>
        <circle cx="288.72" cy="148.55" r="2.94" fill="#3f3d56"/>
        <circle cx="298.47" cy="168.44" r="2.94" fill="#3f3d56"/>
        <circle cx="272.97" cy="151.48" r="3.87" fill="#fff"/>
        <path d="M273,145.88a5.47,5.47,0,0,0-5.47,5.47c0,3,5.47,13,5.47,13s5.47-9.93,5.47-13A5.47,5.47,0,0,0,273,145.88Zm0,8.14a2.54,2.54,0,1,1,2.54-2.54A2.54,2.54,0,0,1,273,154Z" fill="#ff6584"/>
        <circle cx="251.88" cy="168.04" r="3.87" fill="#fff"/>
        <path d="M251.88,162.43a5.47,5.47,0,0,0-5.47,5.47c0,3,5.47,12.95,5.47,12.95s5.47-9.92,5.47-12.95A5.47,5.47,0,0,0,251.88,162.43Zm0,8.14a2.54,2.54,0,1,1,2.53-2.53,2.54,2.54,0,0,1-2.53,2.53Z" fill="#ff6584"/>
        <circle cx="298.47" cy="156.02" r="3.87" fill="#fff"/>
        <path d="M298.47,150.42a5.47,5.47,0,0,0-5.48,5.47c0,3,5.48,13,5.48,13s5.47-9.93,5.47-13A5.47,5.47,0,0,0,298.47,150.42Zm0,8.14A2.54,2.54,0,1,1,301,156a2.54,2.54,0,0,1-2.53,2.54Z" fill="#ff6584"/>
        <circle cx="272.97" cy="125.45" r="3.87" fill="#fff"/>
        <path d="M273,119.85a5.47,5.47,0,0,0-5.47,5.47c0,3,5.47,13,5.47,13s5.47-9.93,5.47-13A5.47,5.47,0,0,0,273,119.85Zm0,8.14a2.54,2.54,0,1,1,2.54-2.54A2.54,2.54,0,0,1,273,128Z" fill="#ff6584"/>
        <circle cx="282.85" cy="176.85" r="3.87" fill="#fff"/>
        <path d="M282.85,171.24a5.47,5.47,0,0,0-5.47,5.47c0,3,5.47,12.95,5.47,12.95s5.47-9.92,5.47-12.95A5.47,5.47,0,0,0,282.85,171.24Zm0,8.14a2.54,2.54,0,1,1,2.53-2.53,2.54,2.54,0,0,1-2.53,2.53Z" fill="#ff6584"/>
        <circle cx="250.41" cy="147.08" r="3.87" fill="#fff"/>
        <path d="M250.41,141.47a5.47,5.47,0,0,0-5.47,5.47c0,3,5.47,12.95,5.47,12.95s5.47-9.92,5.47-12.95A5.47,5.47,0,0,0,250.41,141.47Zm0,8.14a2.54,2.54,0,1,1,2.54-2.53,2.54,2.54,0,0,1-2.54,2.53Z" fill="#ff6584"/>
        <circle cx="288.72" cy="136.27" r="3.87" fill="#fff"/>
        <path d="M288.72,130.66a5.47,5.47,0,0,0-5.47,5.47c0,3,5.47,13,5.47,13s5.48-9.93,5.48-13A5.48,5.48,0,0,0,288.72,130.66Zm0,8.14a2.54,2.54,0,1,1,2.54-2.53,2.53,2.53,0,0,1-2.54,2.53Z" fill="#ff6584"/>
        <path d="M214.76,239.86c0,1.9-16.48,3.43-36.8,3.43s-36.81-1.53-36.81-3.43,15.15-6.16,35.48-6.16S214.76,238,214.76,239.86Z" fill="#3f3d56"/>
        <rect x="165.52" y="128.35" width="14.44" height="11.95" fill="#2f2e41"/>
        <polygon points="190.33 228.38 191.57 233.16 188.25 233.68 186.69 228.69 190.33 228.38" fill="#a0616a"/>
        <polygon points="166.74 227.65 166.74 232.74 163.21 232.74 163.73 227.65 166.74 227.65" fill="#a0616a"/>
        <path d="M187.63,232.74s2.49-1.14,3.94,0a8.55,8.55,0,0,1,2.19,3.74s3.74,4.78-.63,4.58-4.57-.73-4.57-1.46.21-1.56-.52-1.87a2.15,2.15,0,0,1-.83-2.18A18.25,18.25,0,0,0,187.63,232.74Z" fill="#2f2e41"/>
        <path d="M167.36,231.91s-3.42-2.19-4.15-.47-1.77,3.9-1.77,3.9-2.91,4.57.73,4.68,4.26-.42,4.57-1.35,0-1.67.62-1.67.94-1.35.63-2A18.21,18.21,0,0,1,167.36,231.91Z" fill="#2f2e41"/>
        <path d="M177.24,135.39s-.84,4.67,1.35,5,4.36,1.24,4.46,1.87-8.52,7.27-8.52,7.27l-5.29-1.66s-5.3-1.35-5.1-2.39.63-2.5.63-2.5,6-1.24,6.13-3.11a35.28,35.28,0,0,1,.83-4.89Z" fill="#a0616a"/>
        <path d="M177.24,135.39s-.84,4.67,1.35,5,4.36,1.24,4.46,1.87-8.52,7.27-8.52,7.27l-5.29-1.66s-5.3-1.35-5.1-2.39.63-2.5.63-2.5,6-1.24,6.13-3.11a35.28,35.28,0,0,1,.83-4.89Z" opacity="0.1" style="isolation: isolate"/>
        <path d="M163.52,164.69s3.76,3.59,11.23,3.25,6.85,2.26,6.85,2.26l-.31,4.15s4,17.35,3.43,26.5c0,0,.2,4.36,1.66,6.75s5.4,20.05,4.78,21.4-5.2.83-5.2.83-4.26-16.1-6.33-19.74a16.4,16.4,0,0,1-2.29-5.71l-7.07-20.57-.93,8.93s.1,7.07.1,7.69-.1,5.61-.52,6.65-2,17.66-1,20.47S163,228.8,163,228.8s-1.77-18.08-1.25-21.62-.83-9.87-.83-9.87S157,178,159.16,174.87c0,0,1.45-10.6,2.18-10.49Z" fill="#2f2e41"/>
        <circle cx="174.27" cy="131.91" r="5.71" fill="#a0616a"/>
        <path d="M159.68,168c.1.32,1.34-.33,2.53-1s2.25-1.44,2.25-1.44c1.24,3.95,9.14,2.39,9.14,2.39l.06.08a14.52,14.52,0,0,0,2.74,2.83c1.56,1.14,5.2-1.56,5.2-1.56s5.65-13.54,6.38-20.71a6.5,6.5,0,0,0-.35-3.6c-2.39-4.16-5.76-3.64-5.76-3.64-.55,1.46-5.05,3.64-5.05,3.64l-4.47.83c-4.47.83-5.82-3.85-5.82-3.85-1.24-.2-3.53,2.08-3.53,2.08-2.18.63-3.32,7.9-3.32,7.9l.55.7.67.86.27.35a31.81,31.81,0,0,1,3,4.32c.63,1.46-.62,3.64-2.07,3.54S159.47,167.39,159.68,168Z" fill="#00897b"/>
        <path d="M174.33,173.62s-4.89,6.13-7.07,3.95,6.34-7.27,6.34-7.27Z" fill="#a0616a"/>
        <path d="M162,171.75s4.26,6.45,1.87,6.65-5.3-4.26-5.3-4.26Z" fill="#a0616a"/>
        <path d="M161.37,140.93a26.11,26.11,0,0,0,1.64-3.62,16.06,16.06,0,0,0,.2-4.75,15.08,15.08,0,0,1,.36-4.19,7.18,7.18,0,0,1,2.07-3.61c2.68-2.39,7.58-2.56,10.84-1.57,1.29.4,2.66,1.14,3,2.45,0,.2.07.4.13.6.27,1,1.26,1.59,1.62,2.53.47,1.22-.25,2.55-.34,3.85a8,8,0,0,0,1.37,4.3,4.88,4.88,0,0,1,.85,2.54,3.19,3.19,0,0,1-.44,1.41,5.33,5.33,0,0,1-4.49,2.57,2.83,2.83,0,0,1-1.69-.39,2.62,2.62,0,0,1-.86-2.61,12.2,12.2,0,0,1,1-2.71c.11-.27.22-.55.32-.83a5.72,5.72,0,1,0-3.77.64,7.79,7.79,0,0,1-.38,4.3A15.68,15.68,0,0,1,171,145a4.19,4.19,0,0,1-1.15,1.29,4.08,4.08,0,0,1-1,.42,10.19,10.19,0,0,1-4.46.63,4.29,4.29,0,0,1-3.5-2.54A5.23,5.23,0,0,1,161.37,140.93Z" fill="#2f2e41"/>
        <ellipse cx="173.86" cy="128.38" rx="6.23" ry="3.53" fill="#2f2e41"/>
        <path d="M173.66,168a14.52,14.52,0,0,0,2.74,2.83c1.56,1.14,5.2-1.56,5.2-1.56s5.65-13.54,6.38-20.71a33.09,33.09,0,0,0-1.39-3.5l1.19,4.83s-5.35,4.31-6.49,6.08-.11,7.69,0,8.62-2.08,1.25-3.12,1.15-1.25.83-2.18.83A6.16,6.16,0,0,0,173.66,168Z" opacity="0.1" style="isolation: isolate"/>
        <path d="M186.07,145.05h1.56a38.09,38.09,0,0,1,3.42,16.63c-.41,8.83-4.67,12.36-9.55,13.5s-7.07,1.87-7.69,1.15-.94-6.76-.94-6.76,3.22-3,4.16-3,1.14-.94,2.18-.83,3.22-.21,3.12-1.15-1.15-6.85,0-8.62S186.07,145.05,186.07,145.05Z" fill="#00897b"/>
        <path d="M160.23,152.61l.67.86-.6-1.25S160.27,152.36,160.23,152.61Z" opacity="0.1" style="isolation: isolate"/>
        <path d="M159.68,168c.1.32,1.34-.33,2.53-1a1.29,1.29,0,0,0,0-.19c-.31-1.25,1.87-4.26,1.87-4.26l1.45-3.95-.31-5.3-4,.56a31.81,31.81,0,0,1,3,4.32c.63,1.46-.62,3.64-2.07,3.54S159.47,167.39,159.68,168Z" opacity="0.1" style="isolation: isolate"/>
        <path d="M161.75,149.83l-2.07,2.08s-1.46,8.41-1.46,8.93-2.49,3.85-1.87,6.13,1,5.3.52,5.93-1.25,2.39,0,3.22,2.81-4.78,6.55-3.33c0,0-2.29-3.63-2.19-3.95a3.43,3.43,0,0,0,.32-2.39c-.32-1.24,1.87-4.26,1.87-4.26l1.45-3.94-.31-5.3Z" fill="#00897b"/>
      </g>
    </g>
  </g>
</svg>
