<svg xmlns="http://www.w3.org/2000/svg" xmlns:xlink="http://www.w3.org/1999/xlink" viewBox="0 0 674.6 432.79">
  <defs>
    <clipPath id="e047f724-ccaa-4063-8419-78b1891812bc">
      <rect x="518.79" y="173.72" width="24.36" height="149.48" transform="translate(175.54 -217.73) rotate(27.6)" fill="none"/>
    </clipPath>
  </defs>
  <title>hero</title>
  <g style="isolation: isolate">
    <g id="bad62d1f-27e6-4321-a1eb-1c0f91b65fca" data-name="Layer 2">
      <g id="e86d4299-5028-4ab2-b5c3-0237279a6d85" data-name="OBJECT">
        <g>
          <g>
            <path d="M105,165c5.6-13.52-25-21.87-59.48,18C15.38,218-3,296.31,73.54,368.14,154,443.69,509.69,483.48,607.1,311.84c85-149.78-47.3-151.59-95.67-153.19C390.84,154.68,418.12-104,237,123.39,154.93,226.42,84.16,215.41,105,165Z" fill="#e0f2f1" fill-rule="evenodd"/>
            <path d="M555.24,327.86s32.55-31.44,43.21-67.74c10.29-35.06,14.15,25.19-29,75.17S539.65,346.27,555.24,327.86Z" fill="#e0f2f1" fill-rule="evenodd"/>
            <path d="M600.63,153s34.49,3.62,48,24c19.14,28.89,6.83,77.76-5.61,100.89s13.11,16.13,27.09-37.54-5.2-90.82-50.73-100.26S559.62,151.56,600.63,153Z" fill="#e0f2f1" fill-rule="evenodd"/>
            <path d="M628.81,313.32A241.83,241.83,0,0,1,617,335.48c-6.26,10.12-.69,14.23,10.26,1.16S633.82,303.21,628.81,313.32Z" fill="#e0f2f1" fill-rule="evenodd"/>
            <path d="M7.43,216.2s17.74-50.46,59.83-74.15S50.5,126.6,24.13,160.64C-6.39,200-3,244.51,7.43,216.2Z" fill="#e0f2f1" fill-rule="evenodd"/>
            <path d="M92.47,125.53s4.31-9.23,18.61-5.67C123.15,122.87,87.52,134.43,92.47,125.53Z" fill="#e0f2f1" fill-rule="evenodd"/>
          </g>
          <path d="M606.6,239.76s3.19-10,.33-16.1-5,4.29-4.72,8.87S603.49,247.77,606.6,239.76Z" fill="#fff" fill-rule="evenodd"/>
          <g>
            <g>
              <rect x="518.79" y="173.72" width="24.36" height="149.48" transform="translate(175.54 -217.73) rotate(27.6)" fill="#ccc"/>
              <g clip-path="url(#e047f724-ccaa-4063-8419-78b1891812bc)">
                <g>
                  <rect x="567.75" y="193.4" width="9.6" height="2.11" transform="translate(155.25 -243.14) rotate(27.6)" fill="#999"/>
                  <rect x="558.85" y="210.42" width="9.6" height="2.11" transform="translate(162.12 -237.07) rotate(27.6)" fill="#999"/>
                  <rect x="567.51" y="200.94" width="9.6" height="2.11" transform="translate(158.71 -242.17) rotate(27.6)" fill="#999"/>
                  <rect x="564.36" y="206.96" width="9.6" height="2.11" transform="translate(161.14 -240.02) rotate(27.6)" fill="#999"/>
                  <rect x="549.72" y="227.89" width="9.6" height="2.11" transform="translate(169.18 -230.86) rotate(27.6)" fill="#999"/>
                  <rect x="558.38" y="218.41" width="9.6" height="2.11" transform="translate(165.77 -235.95) rotate(27.6)" fill="#999"/>
                  <rect x="555.23" y="224.43" width="9.6" height="2.11" transform="translate(168.2 -233.81) rotate(27.6)" fill="#999"/>
                  <rect x="540.59" y="245.36" width="9.6" height="2.11" transform="translate(176.23 -224.64) rotate(27.6)" fill="#999"/>
                  <rect x="549.25" y="235.87" width="9.6" height="2.11" transform="translate(172.82 -229.73) rotate(27.6)" fill="#999"/>
                  <rect x="546.1" y="241.89" width="9.6" height="2.11" transform="translate(175.25 -227.59) rotate(27.6)" fill="#999"/>
                  <rect x="531.46" y="262.83" width="9.6" height="2.11" transform="translate(183.28 -218.42) rotate(27.6)" fill="#999"/>
                  <rect x="540.11" y="253.34" width="9.6" height="2.11" transform="translate(179.87 -223.51) rotate(27.6)" fill="#999"/>
                  <rect x="536.97" y="259.36" width="9.6" height="2.11" transform="translate(182.3 -221.37) rotate(27.6)" fill="#999"/>
                  <rect x="522.32" y="280.29" width="9.6" height="2.11" transform="translate(190.34 -212.2) rotate(27.6)" fill="#999"/>
                  <rect x="530.98" y="270.81" width="9.6" height="2.11" transform="translate(186.93 -217.29) rotate(27.6)" fill="#999"/>
                  <rect x="527.84" y="276.83" width="9.6" height="2.11" transform="translate(189.36 -215.15) rotate(27.6)" fill="#999"/>
                  <rect x="513.19" y="297.76" width="9.6" height="2.11" transform="translate(197.39 -205.98) rotate(27.6)" fill="#999"/>
                  <rect x="521.85" y="288.28" width="9.6" height="2.11" transform="translate(193.98 -211.07) rotate(27.6)" fill="#999"/>
                  <rect x="518.7" y="294.3" width="9.6" height="2.11" transform="translate(196.41 -208.93) rotate(27.6)" fill="#999"/>
                  <rect x="504.06" y="315.23" width="9.6" height="2.11" transform="translate(204.44 -199.76) rotate(27.6)" fill="#999"/>
                  <rect x="512.72" y="305.74" width="9.6" height="2.11" transform="translate(201.04 -204.86) rotate(27.6)" fill="#999"/>
                  <rect x="509.57" y="311.77" width="9.6" height="2.11" transform="translate(203.47 -202.71) rotate(27.6)" fill="#999"/>
                </g>
              </g>
            </g>
            <g>
              <polygon points="480.02 288.28 480.17 308.57 492.47 292.43 480.02 288.28" fill="#b9a2ba"/>
              <rect x="511.06" y="185.53" width="12.88" height="21.32" rx="2.34" transform="translate(88.58 -153.55) rotate(18.43)" fill="#7d677f"/>
              <rect x="493.76" y="203.58" width="13.12" height="89.06" transform="translate(104.11 -145.46) rotate(18.43)" fill="#7d677f"/>
              <path d="M515.13,240.71c-4-6.75,15.81-29.45,14.31-34.39-.82-2.71-3.3-3.81-5.38-4.26l2-5.87-15.33-5.11L504,211.31l15.33,5.11.11.11-9.7,30.55S519.17,247.47,515.13,240.71Z" fill="#b9a2ba"/>
            </g>
            <polygon points="502.04 345.17 462.82 328.85 488.61 250.62 539.37 271.74 502.04 345.17" fill="#0071bc"/>
            <rect x="481.76" y="260.86" width="60.6" height="11.56" transform="translate(141.76 -176.29) rotate(22.6)" fill="#29abe2"/>
          </g>
          <path d="M472.72,350.58c4.43-.83-1.68-6.37-7.78-11q1.5,5.63,3.47,11A15.47,15.47,0,0,0,472.72,350.58Z" fill="#b0d0ff"/>
          <g>
            <path d="M489.13,334.15s-2.31,4.88.54,7.5l-38.21.12.08-7Z" fill="#fff"/>
            <path d="M489.57,308.8s-2.31,4.89.53,7.5l-38.2.13.08-7Z" fill="#fff"/>
            <polygon points="490.63 306.07 490.65 309.19 451.98 309.41 452.02 316.04 490.69 315.81 490.7 318.93 448.01 319.18 448.01 319.06 448 316.06 447.96 309.43 447.94 306.31 490.63 306.07" fill="#4f64b1"/>
            <g>
              <line x1="487.59" y1="310.57" x2="453.3" y2="310.76" fill="#cae0ff"/>
              <rect x="453.3" y="310.37" width="34.28" height="0.58" transform="translate(-1.78 2.71) rotate(-0.33)" fill="#162659"/>
            </g>
            <g>
              <line x1="487.6" y1="312.4" x2="453.31" y2="312.59" fill="#cae0ff"/>
              <rect x="453.31" y="312.2" width="34.28" height="0.58" transform="translate(-1.79 2.71) rotate(-0.33)" fill="#162659"/>
            </g>
            <g>
              <line x1="487.61" y1="314.15" x2="453.32" y2="314.35" fill="#cae0ff"/>
              <rect x="453.32" y="313.96" width="34.28" height="0.58" transform="translate(-1.8 2.71) rotate(-0.33)" fill="#162659"/>
              <rect x="452.94" y="335.96" width="34.28" height="0.58" transform="translate(-1.92 2.7) rotate(-0.33)" fill="#a29b00"/>
              <rect x="452.95" y="337.79" width="34.28" height="0.58" transform="translate(-1.93 2.7) rotate(-0.33)" fill="#a29b00"/>
              <rect x="452.96" y="339.54" width="34.28" height="0.58" transform="translate(-1.94 2.7) rotate(-0.33)" fill="#a29b00"/>
            </g>
            <path d="M484.77,321.7s-2.31,4.88.54,7.5l-38.21.12.08-7Z" fill="#fff"/>
            <polygon points="485.83 318.96 485.85 322.08 447.18 322.3 447.22 328.93 485.89 328.71 485.9 331.83 443.21 332.07 443.21 331.95 443.2 328.95 443.16 322.32 443.14 319.2 485.83 318.96" fill="#00f7e5"/>
            <rect x="448.5" y="323.27" width="34.28" height="0.58" transform="translate(-1.85 2.68) rotate(-0.33)" fill="#162659"/>
            <rect x="448.51" y="325.09" width="34.28" height="0.58" transform="translate(-1.86 2.68) rotate(-0.33)" fill="#162659"/>
            <rect x="448.52" y="326.85" width="34.28" height="0.58" transform="translate(-1.87 2.68) rotate(-0.33)" fill="#162659"/>
            <polygon points="490.19 331.41 490.21 334.53 451.54 334.75 451.58 341.38 490.25 341.16 490.26 344.28 447.57 344.52 447.57 344.4 447.56 341.4 447.52 334.77 447.5 331.66 490.19 331.41" fill="#859ce8"/>
          </g>
          <g>
            <path d="M495.4,298.54s-2.31,4.89.54,7.5l-38.21.13.08-7Z" fill="#fff"/>
            <path d="M495.84,273.2s-2.31,4.88.53,7.5l-38.2.12.08-7Z" fill="#fff"/>
            <polygon points="496.9 270.46 496.92 273.58 458.25 273.8 458.29 280.43 496.96 280.21 496.98 283.33 454.28 283.57 454.28 283.45 454.27 280.45 454.23 273.83 454.21 270.71 496.9 270.46" fill="#4f64b1"/>
            <g>
              <line x1="493.86" y1="274.96" x2="459.57" y2="275.16" fill="#cae0ff"/>
              <rect x="459.57" y="274.77" width="34.28" height="0.58" transform="translate(-1.57 2.74) rotate(-0.33)" fill="#162659"/>
            </g>
            <g>
              <line x1="493.87" y1="276.79" x2="459.58" y2="276.99" fill="#cae0ff"/>
              <rect x="459.58" y="276.6" width="34.28" height="0.58" transform="translate(-1.58 2.74) rotate(-0.33)" fill="#162659"/>
            </g>
            <g>
              <line x1="493.88" y1="278.55" x2="459.59" y2="278.74" fill="#cae0ff"/>
              <rect x="459.59" y="278.35" width="34.28" height="0.58" transform="translate(-1.59 2.74) rotate(-0.33)" fill="#162659"/>
              <rect x="459.21" y="300.36" width="34.28" height="0.58" transform="translate(-1.72 2.74) rotate(-0.33)" fill="#a29b00"/>
              <rect x="459.22" y="302.19" width="34.28" height="0.58" transform="translate(-1.73 2.74) rotate(-0.33)" fill="#a29b00"/>
              <rect x="459.23" y="303.94" width="34.28" height="0.58" transform="translate(-1.74 2.74) rotate(-0.33)" fill="#a29b00"/>
            </g>
            <path d="M491,286.09s-2.31,4.89.54,7.5l-38.21.13.08-7Z" fill="#fff"/>
            <polygon points="492.1 283.36 492.12 286.48 453.45 286.7 453.49 293.32 492.16 293.1 492.18 296.22 449.49 296.47 449.48 296.35 449.47 293.35 449.43 286.72 449.41 283.6 492.1 283.36" fill="#fb9844"/>
            <rect x="454.77" y="287.66" width="34.28" height="0.58" transform="translate(-1.65 2.71) rotate(-0.33)" fill="#162659"/>
            <rect x="454.78" y="289.49" width="34.28" height="0.58" transform="translate(-1.66 2.71) rotate(-0.33)" fill="#162659"/>
            <rect x="454.79" y="291.25" width="34.28" height="0.58" transform="translate(-1.67 2.71) rotate(-0.33)" fill="#162659"/>
            <polygon points="496.46 295.81 496.48 298.93 457.81 299.15 457.85 305.78 496.52 305.55 496.54 308.67 453.85 308.92 453.84 308.8 453.83 305.8 453.79 299.17 453.77 296.05 496.46 295.81" fill="#2f3655"/>
          </g>
          <g>
            <g>
              <path d="M169.16,345.36,79.94,333.78c-6.55-.85-4-20.92,2.6-20.07l89.23,11.59Z" fill="#662d91"/>
              <path d="M169.43,343.32,84.28,332.26c-6.25-.81-4.26-16.16,2-15.35L171.42,328Z" fill="#eff4f4"/>
              <path d="M170,330.31,85.88,319.39a.75.75,0,0,1-.64-.83h0a.73.73,0,0,1,.83-.63l84.08,10.91a.74.74,0,0,1,.63.83h0A.74.74,0,0,1,170,330.31Z" fill="#ccc"/>
              <path d="M169.58,333.23,85.5,322.31a.74.74,0,0,1-.64-.83h0a.74.74,0,0,1,.83-.63l84.08,10.92a.73.73,0,0,1,.63.82h0A.73.73,0,0,1,169.58,333.23Z" fill="#ccc"/>
              <path d="M169.2,336.15,85.12,325.23a.74.74,0,0,1-.64-.82h0a.75.75,0,0,1,.83-.64l84.08,10.92a.73.73,0,0,1,.63.83h0A.73.73,0,0,1,169.2,336.15Z" fill="#ccc"/>
              <path d="M168.82,339.08,84.74,328.16a.75.75,0,0,1-.64-.83h0a.74.74,0,0,1,.83-.63L169,337.62a.73.73,0,0,1,.63.82h0A.74.74,0,0,1,168.82,339.08Z" fill="#ccc"/>
              <path d="M168.44,342,84.36,331.08a.74.74,0,0,1-.64-.82h0a.75.75,0,0,1,.83-.64l84.08,10.92a.74.74,0,0,1,.64.83h0A.75.75,0,0,1,168.44,342Z" fill="#ccc"/>
            </g>
            <g>
              <path d="M110.42,299l72.85,9c5.35.66,3.32,17-2,16.38l-72.86-9Z" fill="#fc6b76"/>
              <path d="M110.21,300.66l69.53,8.61c5.1.63,3.55,13.16-1.55,12.53l-69.53-8.61Z" fill="#eff4f4"/>
              <path d="M109.84,311.28l68.66,8.5a.6.6,0,0,1,.52.67h0a.6.6,0,0,1-.67.52l-68.65-8.5a.61.61,0,0,1-.53-.67h0A.61.61,0,0,1,109.84,311.28Z" fill="#ccc"/>
              <path d="M110.14,308.89l68.65,8.5a.61.61,0,0,1,.53.67h0a.6.6,0,0,1-.67.52L110,310.09a.6.6,0,0,1-.52-.67h0A.61.61,0,0,1,110.14,308.89Z" fill="#ccc"/>
              <path d="M110.43,306.51,179.09,315a.6.6,0,0,1,.52.67h0a.61.61,0,0,1-.67.53l-68.65-8.5a.61.61,0,0,1-.53-.67h0A.61.61,0,0,1,110.43,306.51Z" fill="#ccc"/>
              <path d="M110.73,304.12l68.65,8.5a.61.61,0,0,1,.53.67h0a.61.61,0,0,1-.67.52l-68.66-8.5a.6.6,0,0,1-.52-.67h0A.6.6,0,0,1,110.73,304.12Z" fill="#ccc"/>
              <path d="M111,301.73l68.65,8.5a.6.6,0,0,1,.52.67h0a.6.6,0,0,1-.67.52l-68.65-8.5a.59.59,0,0,1-.52-.67h0A.61.61,0,0,1,111,301.73Z" fill="#ccc"/>
            </g>
            <g>
              <path d="M101.22,352.61l73.07-7c5.37-.51,6.94,15.93,1.57,16.44l-73.08,7Z" fill="#fc6b76"/>
              <path d="M101.38,354.29l69.74-6.65c5.12-.49,6.32,12.08,1.2,12.57l-69.75,6.65Z" fill="#eff4f4"/>
              <path d="M103.31,364.74l68.87-6.57a.6.6,0,0,1,.65.54h0a.6.6,0,0,1-.54.66l-68.86,6.56a.61.61,0,0,1-.66-.54h0A.6.6,0,0,1,103.31,364.74Z" fill="#ccc"/>
              <path d="M103.09,362.34,172,355.78a.6.6,0,0,1,.66.54h0a.6.6,0,0,1-.54.65l-68.87,6.57a.61.61,0,0,1-.66-.54h0A.61.61,0,0,1,103.09,362.34Z" fill="#ccc"/>
              <path d="M102.86,360l68.86-6.57a.61.61,0,0,1,.66.54h0a.61.61,0,0,1-.54.66L103,361.14a.6.6,0,0,1-.65-.54h0A.59.59,0,0,1,102.86,360Z" fill="#ccc"/>
              <path d="M102.63,357.55,171.49,351a.6.6,0,0,1,.66.54h0a.6.6,0,0,1-.54.65l-68.87,6.57a.6.6,0,0,1-.65-.54h0A.61.61,0,0,1,102.63,357.55Z" fill="#ccc"/>
              <path d="M102.4,355.16l68.87-6.57a.6.6,0,0,1,.65.54h0a.61.61,0,0,1-.54.66l-68.87,6.56a.59.59,0,0,1-.65-.54h0A.6.6,0,0,1,102.4,355.16Z" fill="#ccc"/>
            </g>
            <g>
              <path d="M136.15,328.35l1.21.11s8.83-13.85,23.55-21.92a4.59,4.59,0,0,0,3.73-.54l-1.88-1.92-2.35-.21s-10,7.94-13.61,12-9.28,9.75-9.28,9.75Z" fill="#ba9bc9"/>
              <path d="M187.55,278l.09,1.21s-14,8.56-22.39,23.12a4.53,4.53,0,0,1-.61,3.72l-1.88-1.92-.17-2.36s8.15-9.85,12.23-13.37,9.93-9.08,9.93-9.08Z" fill="#ba9bc9"/>
              <path d="M131.68,325.91,133,327.3l.53-.52,1.24,1.26.53-.52.81.83S143,317.23,161.34,305l-2.15-4.51-9.8,5.18Z" fill="#fff"/>
              <path d="M184.88,273.75l1.36,1.39-.53.52,1.24,1.26-.53.52.81.83S176,284.88,163.33,303l-4.47-2.24,5.38-9.69Z" fill="#fff"/>
              <rect x="157.73" y="296.03" width="4.85" height="10.76" rx="2.01" transform="translate(-165.23 198.31) rotate(-44.44)" fill="#fff"/>
              <path d="M186.25,273.9a133.89,133.89,0,0,0-27.06,26.54l-39.82-40.61a63.88,63.88,0,0,1,27.07-26.54Z" fill="#fff"/>
              <path d="M132.13,327a121.29,121.29,0,0,1,27.06-26.53l-39.82-40.61a63.83,63.83,0,0,0-27.06,26.53Z" fill="#eff4f4"/>
              <path d="M119.83,265.46l-.11.08c-15.79,9.38-22.57,22-22.64,22.18a.58.58,0,0,1-1-.54c.07-.13,7-13.08,23.08-22.64a.58.58,0,0,1,.79.21A.59.59,0,0,1,119.83,265.46Z" fill="#ccc"/>
              <path d="M123.6,269.31l-.11.08c-15.79,9.38-22.57,22.05-22.64,22.18a.58.58,0,1,1-1-.54c.07-.13,7-13.08,23.07-22.64a.58.58,0,0,1,.7.92Z" fill="#ccc"/>
              <path d="M127.38,273.16l-.11.08c-15.8,9.38-22.57,22.05-22.64,22.18a.58.58,0,0,1-1-.54c.07-.13,7-13.08,23.07-22.64a.59.59,0,0,1,.71.92Z" fill="#ccc"/>
              <path d="M131.15,277l-.11.08c-15.79,9.38-22.57,22.05-22.64,22.18a.58.58,0,1,1-1-.54c.06-.13,7-13.08,23.07-22.64a.58.58,0,0,1,.7.92Z" fill="#ccc"/>
              <path d="M134.93,280.86l-.11.08c-15.8,9.38-22.57,22.05-22.64,22.18a.58.58,0,0,1-1-.54c.07-.13,7-13.08,23.07-22.64a.59.59,0,0,1,.71.92Z" fill="#ccc"/>
              <path d="M138.7,284.71l-.11.08C122.8,294.17,116,306.84,116,307a.58.58,0,0,1-1-.54c.06-.13,7-13.08,23.07-22.64a.58.58,0,0,1,.7.92Z" fill="#ccc"/>
              <path d="M142.48,288.56a.5.5,0,0,1-.12.08c-15.79,9.38-22.57,22.05-22.63,22.18a.59.59,0,0,1-.79.24.58.58,0,0,1-.24-.78c.07-.13,7-13.08,23.07-22.64a.59.59,0,0,1,.71.92Z" fill="#ccc"/>
              <path d="M146.25,292.41l-.11.08c-15.79,9.38-22.57,22.05-22.64,22.18a.58.58,0,1,1-1-.54c.06-.13,7-13.08,23.07-22.64a.58.58,0,0,1,.7.92Z" fill="#ccc"/>
              <path d="M150,296.26l-.11.08c-15.79,9.38-22.57,22.05-22.63,22.18a.59.59,0,0,1-.79.24.58.58,0,0,1-.24-.78c.07-.13,7-13.08,23.07-22.64a.59.59,0,0,1,.8.21A.58.58,0,0,1,150,296.26Z" fill="#ccc"/>
              <path d="M153.8,300.11l-.11.08c-15.79,9.38-22.57,22.05-22.64,22.18a.58.58,0,0,1-.78.24.59.59,0,0,1-.25-.78c.07-.13,7-13.08,23.08-22.64a.58.58,0,0,1,.7.92Z" fill="#ccc"/>
              <path d="M125,260.39a.31.31,0,0,0,.09-.11c9.69-15.6,22.49-22.13,22.62-22.19a.58.58,0,0,0-.52-1c-.13.06-13.21,6.72-23.08,22.62a.58.58,0,0,0,.89.72Z" fill="#ccc"/>
              <path d="M128.77,264.24l.09-.11c9.69-15.6,22.49-22.13,22.62-22.19a.59.59,0,0,0,.26-.78.58.58,0,0,0-.78-.26c-.13.06-13.22,6.72-23.09,22.62a.58.58,0,0,0,.19.8A.59.59,0,0,0,128.77,264.24Z" fill="#ccc"/>
              <path d="M132.54,268.09a.48.48,0,0,0,.09-.11c9.69-15.6,22.49-22.13,22.62-22.19a.58.58,0,1,0-.52-1c-.13.06-13.21,6.72-23.09,22.62a.59.59,0,0,0,.19.8A.59.59,0,0,0,132.54,268.09Z" fill="#ccc"/>
              <path d="M136.32,271.94a.44.44,0,0,0,.08-.11c9.69-15.6,22.5-22.13,22.63-22.19a.59.59,0,0,0,.26-.78.59.59,0,0,0-.78-.26c-.13.06-13.22,6.72-23.09,22.62a.58.58,0,0,0,.19.8A.59.59,0,0,0,136.32,271.94Z" fill="#ccc"/>
              <path d="M140.09,275.79a.48.48,0,0,0,.09-.11c9.69-15.6,22.49-22.13,22.62-22.19a.58.58,0,1,0-.52-1c-.13.06-13.21,6.72-23.09,22.62a.59.59,0,0,0,.19.8A.59.59,0,0,0,140.09,275.79Z" fill="#ccc"/>
              <path d="M143.87,279.64a.44.44,0,0,0,.08-.11c9.69-15.6,22.5-22.13,22.63-22.19a.58.58,0,0,0,.25-.78.57.57,0,0,0-.77-.26c-.13.06-13.22,6.72-23.09,22.62a.58.58,0,0,0,.19.8A.59.59,0,0,0,143.87,279.64Z" fill="#ccc"/>
              <path d="M147.64,283.49l.09-.11c9.69-15.6,22.49-22.13,22.62-22.19a.58.58,0,1,0-.52-1c-.13.06-13.21,6.72-23.09,22.62a.58.58,0,0,0,.9.72Z" fill="#ccc"/>
              <path d="M151.42,287.34a.44.44,0,0,0,.08-.11c9.69-15.6,22.5-22.13,22.62-22.19a.58.58,0,0,0-.51-1c-.13.06-13.22,6.72-23.09,22.62a.58.58,0,0,0,.18.8A.6.6,0,0,0,151.42,287.34Z" fill="#ccc"/>
              <path d="M155.19,291.19l.09-.11c9.69-15.6,22.49-22.13,22.62-22.19a.59.59,0,0,0,.26-.78.58.58,0,0,0-.78-.26c-.13.06-13.21,6.72-23.09,22.62a.58.58,0,0,0,.9.72Z" fill="#ccc"/>
              <path d="M159,295a.44.44,0,0,0,.08-.11c9.69-15.6,22.5-22.13,22.62-22.19a.58.58,0,0,0-.51-1c-.14.06-13.22,6.72-23.09,22.62a.58.58,0,0,0,.18.8A.6.6,0,0,0,159,295Z" fill="#ccc"/>
            </g>
            <g>
              <polygon points="118.24 277.09 124.49 287.82 126.11 275.51 118.24 277.09" fill="#fbb03b"/>
              <rect x="106.22" y="210.29" width="7.88" height="13.04" rx="2.13" transform="translate(-40.53 25.93) rotate(-11.36)" fill="#fc6b76"/>
              <rect x="112.8" y="222.35" width="8.03" height="54.48" transform="translate(-46.85 27.88) rotate(-11.36)" fill="#fcee21"/>
              <rect x="106.17" y="215.06" width="9.89" height="13.04" transform="translate(-41.45 26.22) rotate(-11.36)" fill="#fbb03b"/>
            </g>
          </g>
          <g>
            <rect x="376.1" y="255.85" width="55.03" height="57.26" fill="#4f64b1"/>
            <polygon points="415.65 386.97 414.53 398.68 419.83 399.51 423.46 388.5 415.65 386.97" fill="#fed4d5"/>
            <path d="M463.47,223.32s-13.2,22.68-17.66,23.61-14.68-7.44-14.68-7.44l2.23-52.42s10,1.11,11.89,7.62.56,34.77.56,34.77l15.06-8.93Z" fill="#2c5099"/>
            <rect x="374.24" y="333.19" width="68.79" height="7.44" fill="#d87a1d"/>
            <rect x="439.68" y="312.74" width="7.06" height="81.06" fill="#f7931e"/>
            <rect x="372.75" y="312.74" width="7.06" height="81.06" fill="#f7931e"/>
            <path d="M440,264.78a10.18,10.18,0,0,0,.78-3.91V248.23A10.23,10.23,0,0,0,430.57,238h-55.4a10.23,10.23,0,0,0-10.23,10.22v12.64a10.18,10.18,0,0,0,.78,3.91Z" fill="#f7931e"/>
            <path d="M454.13,317.58a8.65,8.65,0,0,0,1.16-4.28,8.73,8.73,0,0,0-8.73-8.74H374.05a8.68,8.68,0,0,0-7.57,13Z" fill="#f7931e"/>
            <path d="M380.42,187.23s5.81-3.41,9.71-3.41,16-1.95,16-1.95l17.44,1.95s19.24,6.13,20.07,8.64-2.78,34.58-4.74,39.32-3.34,26.49-3.34,26.49L373.4,283.93s6.69-31.79,8.09-39.88S380.42,187.23,380.42,187.23Z" fill="#4e6fd8"/>
            <g opacity="0.25" style="mix-blend-mode: overlay">
              <path d="M417.43,200.48s14.61,13.41,25,10.08c1-8.66,1.65-16.88,1.24-18.1-.83-2.51-20.07-8.64-20.07-8.64l-14.5-1.12-.43,0Z" fill="#231f20"/>
              <path d="M393.39,257.34c3.34-4.65,24.16-17.1,24.16-17.1l5-22.68s-20.26,7.43-23.79-.19,2.23-18.77-6.88-22.86a36.34,36.34,0,0,1-6.94-4.24c-.54,11.23-2.3,47-3.47,53.78-1.4,8.09-8.09,39.88-8.09,39.88l31.75-13.1C398.73,266.19,391.43,260.06,393.39,257.34Z" fill="#231f20"/>
            </g>
            <path d="M438.65,284.48s9.49,14.78,8.37,27.61-22.87,78.64-22.87,78.64l-9.76-2.23s10.6-71.11,4.47-77.24-27.61-10.88-27.61-10.88S411.61,267.47,438.65,284.48Z" fill="#2f3655"/>
            <g>
              <path d="M405.73,251.21s2.23,4.64-.47,7.15l36.44-.09-.12-6.69Z" fill="#fff"/>
              <path d="M405.17,227s2.23,4.65-.47,7.16l36.44-.1-.11-6.69Z" fill="#fff"/>
              <polygon points="404.15 224.44 404.15 227.41 441.02 227.41 441.02 233.73 404.15 233.73 404.15 236.71 444.86 236.71 444.86 236.59 444.86 233.73 444.86 227.41 444.86 224.44 404.15 224.44" fill="#4f64b1"/>
              <g>
                <line x1="407.07" y1="228.71" x2="439.77" y2="228.71" fill="#cae0ff"/>
                <rect x="407.07" y="228.43" width="32.7" height="0.56" fill="#162659"/>
              </g>
              <g>
                <line x1="407.07" y1="230.46" x2="439.77" y2="230.46" fill="#cae0ff"/>
                <rect x="407.07" y="230.18" width="32.7" height="0.56" fill="#162659"/>
              </g>
              <g>
                <line x1="407.07" y1="232.13" x2="439.77" y2="232.13" fill="#cae0ff"/>
                <rect x="407.07" y="231.85" width="32.7" height="0.56" fill="#162659"/>
                <rect x="407.56" y="252.83" width="32.7" height="0.56" fill="#a29b00"/>
                <rect x="407.56" y="254.58" width="32.7" height="0.56" fill="#a29b00"/>
                <rect x="407.56" y="256.25" width="32.7" height="0.56" fill="#a29b00"/>
              </g>
              <path d="M409.82,239.31s2.23,4.65-.47,7.16l36.44-.1-.12-6.69Z" fill="#fff"/>
              <polygon points="408.79 236.71 408.79 239.68 445.67 239.68 445.67 246 408.79 246 408.79 248.98 449.51 248.98 449.51 248.86 449.51 246 449.51 239.68 449.51 236.71 408.79 236.71" fill="#00f7e5"/>
              <rect x="411.72" y="240.7" width="32.7" height="0.56" fill="#162659"/>
              <rect x="411.72" y="242.45" width="32.7" height="0.56" fill="#162659"/>
              <rect x="411.72" y="244.12" width="32.7" height="0.56" fill="#162659"/>
              <polygon points="404.7 248.6 404.7 251.58 441.58 251.58 441.58 257.9 404.7 257.9 404.7 260.87 445.42 260.87 445.42 260.76 445.42 257.9 445.42 251.58 445.42 248.6 404.7 248.6" fill="#859ce8"/>
            </g>
            <path d="M492.2,354.48l8.64,12s5-2.23,4.74-4.18-8.64-12-8.64-12Z" fill="#fed4d5"/>
            <path d="M498.75,364.8s6.13-1.12,6.55-3.91-.28-3.62,1.68-2.79,10.45,1.4,15.19.7.42,2.09-.55,2.93-20.08,8.78-20.08,8.78S497.49,369.4,498.75,364.8Z" fill="#2f3655"/>
            <path d="M466.82,205.38l2.79,2.42S456,225.09,455.29,225.27s-21.38-1.86-21.38-1.86l.75-15,3-4.47s16.55,6.7,16.55,6.14S466.82,205.38,466.82,205.38Z" fill="#fff"/>
            <polygon points="456.41 213 434.47 206.68 419.97 229.36 442.28 235.68 457.71 229.36 470.54 207.61 456.41 213" fill="#859ce8"/>
            <path d="M421.5,402.78c-.54,2-3.39,3-6.36,2.17s-4.95-3.07-4.41-5.07,3.76-4.28,6.73-3.48S422,400.78,421.5,402.78Z" fill="#2f3655"/>
            <path d="M426.38,217.28s1.12-6.14,5.86-7,10.6,0,9.2,3.34-8.08,2.23-8.08,2.23-5,6.7-7,5.3S426.38,217.28,426.38,217.28Z" fill="#fed4d5"/>
            <path d="M381.49,186.6s7.81-5.57,11.71,3.91-1.95,41-1.95,41l36.25-18.59,3.81,6.23s-40.9,48.61-57.07,30.49S372.56,190.51,381.49,186.6Z" fill="#4e6fd8"/>
            <path d="M438.38,163.46l1.3-4.09s-3.91-1.67-5.21-3.91-4.09-6.87-10.22-7.06-12.64,9.3-10.23,16.73S425.55,167,425.55,167,437.07,169.22,438.38,163.46Z" fill="#2f3655"/>
            <path d="M415.79,168.48l-12,13.94s4.46,19.8,13.38,18.13,3.91-9.76,3.91-9.76l5.57-8.37Z" fill="#fed4d5"/>
            <polygon points="456.41 213 456.35 212.99 442.63 235.54 457.71 229.36 470.54 207.61 456.41 213" fill="#4f64b1"/>
            <path d="M419.31,389.62c2-13.59,6.27-40.87,10.33-57.91,3.28-13.8,9.91-26.66,14.81-35.15a67,67,0,0,0-5.8-12.08c-27-17-47.4,15.9-47.4,15.9s21.47,4.74,27.61,10.88-4.47,77.24-4.47,77.24Z" fill="#231f20" opacity="0.46" style="mix-blend-mode: overlay"/>
            <path d="M426.66,182.42l-10.87-13.94L412.73,172c.09,6.79.75,22.31,4.7,28.44,8.55-1.78,3.66-9.69,3.66-9.69Z" fill="#231f20" style="mix-blend-mode: overlay"/>
            <path d="M467.56,217.56s-1.67-6.51-5.2-3.91,0,7.44,0,7.44l-2.05,3.53S467.75,224.81,467.56,217.56Z" fill="#fed4d5"/>
            <path d="M415.51,170.43s-4.46-7.25-.84-8.64,4.46,5,4.46,5,5-2.23,5.3-7c0,0,9.76,9.48,13.95,3.63,0,0-2.51,23.42-12.27,21.47S415.51,177.12,415.51,170.43Z" fill="#fed4d5"/>
            <path d="M427.22,173.22c0,.77-1.25,1.39-2.79,1.39s-2.79-.62-2.79-1.39,1.25-1.4,2.79-1.4S427.22,172.45,427.22,173.22Z" fill="#231f20" style="mix-blend-mode: overlay"/>
            <path d="M435.87,173.43c0,.65-.75,1.18-1.68,1.18s-1.67-.53-1.67-1.18.75-1.19,1.67-1.19S435.87,172.77,435.87,173.43Z" fill="#231f20" style="mix-blend-mode: overlay"/>
            <path d="M381.86,249.16c-19.93-3.43-3.41-51.62.9-63.27a9,9,0,0,0-1.27.71c-8.93,3.91-23.43,44.9-7.25,63,5.62,6.29,14.16,4.44,22.92-.65A44,44,0,0,1,381.86,249.16Z" fill="#231f20" opacity="0.46" style="mix-blend-mode: overlay"/>
            <path d="M500.65,353.28s-56.87-98.17-69.89-100-43.5,4.46-55.77,24.16,3,33.84,18.21,33.1,35.7-13.76,35.7-13.76l64.69,61.36Z" fill="#2f3655"/>
            <path d="M430,286.16s-32.91,15.34-43.5,13.94c-7.59-1-10.75-14.45-11.93-22-11.49,19.34,3.56,33.14,18.62,32.41,15.25-.74,35.7-13.76,35.7-13.76l64.69,61.36,3.88-2.65Z" fill="#231f20" opacity="0.46" style="mix-blend-mode: overlay"/>
          </g>
          <g>
            <g>
              <path d="M175.82,379.4s3.54,7.4-.76,11.38h58l-.16-10.65Z" fill="#fff"/>
              <path d="M175,341s3.53,7.4-.77,11.38h58l-.16-10.65Z" fill="#fff"/>
              <polygon points="173.41 336.81 173.4 341.54 232.06 341.68 232.04 351.73 173.38 351.6 173.37 356.33 238.12 356.48 238.13 356.29 238.13 351.75 238.16 341.69 238.17 336.96 173.41 336.81" fill="#4f64b1"/>
              <g>
                <line x1="178.05" y1="343.62" x2="230.06" y2="343.75" fill="#cae0ff"/>
                <rect x="203.61" y="317.68" width="0.89" height="52.01" transform="matrix(0, -1, 1, 0, -140.1, 546.95)" fill="#162659"/>
              </g>
              <g>
                <line x1="178.04" y1="346.4" x2="230.05" y2="346.52" fill="#cae0ff"/>
                <rect x="203.61" y="320.45" width="0.89" height="52.01" transform="translate(-142.88 549.7) rotate(-89.87)" fill="#162659"/>
              </g>
              <g>
                <line x1="178.04" y1="349.06" x2="230.05" y2="349.18" fill="#cae0ff"/>
                <rect x="203.6" y="323.11" width="0.89" height="52.01" transform="matrix(0, -1, 1, 0, -145.55, 552.35)" fill="#162659"/>
                <rect x="204.3" y="356.49" width="0.89" height="52.01" transform="translate(-178.23 586.36) rotate(-89.87)" fill="#a29b00"/>
                <rect x="204.29" y="359.27" width="0.89" height="52.01" transform="matrix(0, -1, 1, 0, -181.01, 589.11)" fill="#a29b00"/>
                <rect x="204.29" y="361.93" width="0.89" height="52.01" transform="translate(-183.67 591.76) rotate(-89.87)" fill="#a29b00"/>
              </g>
              <path d="M182.37,360.49s3.54,7.4-.76,11.38h58l-.16-10.65Z" fill="#fff"/>
              <polygon points="180.76 356.35 180.75 361.08 239.41 361.21 239.38 371.27 180.72 371.13 180.71 375.86 245.47 376.01 245.47 375.83 245.48 371.28 245.51 361.23 245.52 356.5 180.76 356.35" fill="#f15a24"/>
              <rect x="210.96" y="337.22" width="0.89" height="52.01" transform="matrix(0, -1, 1, 0, -152.3, 573.78)" fill="#162659"/>
              <rect x="210.95" y="339.99" width="0.89" height="52.01" transform="translate(-155.08 576.54) rotate(-89.87)" fill="#162659"/>
              <rect x="210.95" y="342.65" width="0.89" height="52.01" transform="matrix(0, -1, 1, 0, -157.75, 579.19)" fill="#162659"/>
              <polygon points="174.21 375.26 174.2 379.99 232.86 380.12 232.84 390.18 174.17 390.04 174.16 394.77 238.92 394.92 238.92 394.74 238.93 390.19 238.96 380.14 238.97 375.41 174.21 375.26" fill="#859ce8"/>
            </g>
            <g>
              <path d="M169.85,326.52s3.88,8.13-.84,12.51l63.7,0-.18-11.7Z" fill="#fff"/>
              <path d="M169,284.27s3.88,8.13-.84,12.51l63.7,0-.17-11.7Z" fill="#fff"/>
              <polygon points="167.19 279.71 167.18 284.91 231.66 285.06 231.63 296.11 167.16 295.96 167.14 301.16 238.32 301.33 238.32 301.12 238.33 296.13 238.36 285.08 238.37 279.88 167.19 279.71" fill="#4f64b1"/>
              <g>
                <line x1="172.3" y1="287.2" x2="229.46" y2="287.33" fill="#cae0ff"/>
                <rect x="200.39" y="258.68" width="0.98" height="57.16" transform="translate(-86.85 487.48) rotate(-89.87)" fill="#162659"/>
              </g>
              <g>
                <line x1="172.29" y1="290.25" x2="229.45" y2="290.38" fill="#cae0ff"/>
                <rect x="200.38" y="261.73" width="0.98" height="57.16" transform="matrix(0, -1, 1, 0, -89.91, 490.51)" fill="#162659"/>
              </g>
              <g>
                <line x1="172.28" y1="293.17" x2="229.44" y2="293.3" fill="#cae0ff"/>
                <rect x="200.37" y="264.66" width="0.98" height="57.16" transform="translate(-92.84 493.42) rotate(-89.87)" fill="#162659"/>
                <rect x="201.14" y="301.34" width="0.98" height="57.16" transform="translate(-128.76 530.79) rotate(-89.87)" fill="#a29b00"/>
                <rect x="201.14" y="304.39" width="0.98" height="57.16" transform="translate(-131.81 533.82) rotate(-89.87)" fill="#a29b00"/>
                <rect x="201.13" y="307.32" width="0.98" height="57.16" transform="translate(-134.74 536.74) rotate(-89.87)" fill="#a29b00"/>
              </g>
              <path d="M177.05,305.73s3.88,8.14-.85,12.52l63.71,0-.18-11.7Z" fill="#fff"/>
              <polygon points="175.27 301.18 175.26 306.38 239.73 306.53 239.71 317.58 175.23 317.43 175.22 322.63 246.4 322.8 246.4 322.59 246.41 317.6 246.44 306.55 246.45 301.35 175.27 301.18" fill="#fb9844"/>
              <rect x="208.46" y="280.15" width="0.98" height="57.16" transform="translate(-100.26 516.97) rotate(-89.87)" fill="#162659"/>
              <rect x="208.46" y="283.2" width="0.98" height="57.16" transform="translate(-103.32 520) rotate(-89.87)" fill="#162659"/>
              <rect x="208.45" y="286.13" width="0.98" height="57.16" transform="translate(-106.25 522.92) rotate(-89.87)" fill="#162659"/>
              <polygon points="168.07 321.96 168.06 327.17 232.53 327.31 232.51 338.36 168.03 338.21 168.02 343.42 239.2 343.58 239.2 343.38 239.21 338.38 239.24 327.33 239.25 322.13 168.07 321.96" fill="#2f3655"/>
            </g>
            <path d="M201.56,291.28s-8.48.2-9.09,5.86,1.62,19,6.06,16.16-.2-12.12,1.62-14.55a22,22,0,0,1,5-4.44Z" fill="#fed4d5"/>
            <path d="M202.47,163.85s3.49-4.85,7.58-2.12,7.72,16.66,14.85,18,1.81,9.85-3.49,9.24c0,0,3.79.61,2.88,4.09s-4.55,5-7.27,3.34c0,0,1.82,3.18-1.22,4.24s-8.63-1.06-8.63-1.06l-8.18.3s-7.13,4.55-9.25,1.52a5.32,5.32,0,0,1-.6-5.61s-3,3-5.61.61-.61-5.61,1.06-6.52c0,0-5.3,2.27-7-1.36s-.76-6.22,2.73-8,10.91-7.73,11.67-12S198.08,155.82,202.47,163.85Z" fill="#2f3655"/>
            <path d="M214.69,177.33c-5.86-8.08-4.24-11.51-7-11.21a5.67,5.67,0,0,0-4,2.93s-2.52-5.15-6.36-3-4.85,18.38-14,20.3c-2.58.54-4.56.87-6.1,1.07a11.28,11.28,0,0,0,.44,1.16c1.67,3.63,7,1.36,7,1.36-1.67.91-3.64,4.09-1.06,6.52s5.61-.61,5.61-.61a5.32,5.32,0,0,0,.6,5.61c2.12,3,9.25-1.52,9.25-1.52l8.18-.3s5.6,2.12,8.63,1.06,1.22-4.24,1.22-4.24c2.72,1.66,6.36.15,7.27-3.34s-2.88-4.09-2.88-4.09c3.76.43,7.49-3.7,6.83-6.63A12.51,12.51,0,0,1,214.69,177.33Z" fill="#231f20" style="mix-blend-mode: overlay"/>
            <rect x="187.62" y="198.75" width="32.93" height="58.39" rx="7.28" fill="#e8863d"/>
            <path d="M210.25,198.55A16.47,16.47,0,0,0,193.78,215v6.53l5.16,6.65s2.12,1.07,8,4.7,2.27,6.06-1.52,7.12.91,3.34,6.06,5.61c4.25,1.87-8.47,5.18-13.09,6.29a16.46,16.46,0,0,0,28.29-11.44V215A16.46,16.46,0,0,0,210.25,198.55Z" fill="#231f20" opacity="0.41" style="mix-blend-mode: overlay"/>
            <path d="M254.29,243.4s-5.45,1.21-17.88,5.45-18.79,4.55-18.79,4.55l-20.76,1.36s-14.09-12.88-20.45-13.18-12.73,5.15-12.43,10,6.06,33,27,33.64,27.58,1.21,40.61-7.27S268.23,251.88,254.29,243.4Z" fill="#212638"/>
            <path d="M223.78,301s5.46,2.83,5.66,7.47-4.44,9.9-.2,11.11,10.91-15.75,7.88-17.57a86.38,86.38,0,0,0-10.1-4.45Z" fill="#fed4d5"/>
            <path d="M258.69,243.72C243.74,234.16,199.74,291,199.74,291l3.34,5.75s5-2,12-5.33C223.75,277.69,242.53,250.44,258.69,243.72Z" fill="#231f20" opacity="0.58" style="mix-blend-mode: overlay"/>
            <path d="M193.88,203.6c.44-.47-7.27,3.23-11.11,12.93s-12.12,26.06-9.69,35.15,6.06,10.3,12.93,6.87S184.39,213.7,193.88,203.6Z" fill="#d67432"/>
            <path d="M163.07,244.31s2.43-8.79,12.13-6.67,56.36,61.52,56.36,61.52L227.32,304S157.62,272.19,163.07,244.31Z" fill="#2f3655"/>
            <path d="M214.76,201.78c-.43-.47,7.28,3.23,11.12,12.93s12.12,26.06,9.69,35.15-6.06,10.31-12.93,6.87S224.26,211.88,214.76,201.78Z" fill="#d67432"/>
            <rect x="199.14" y="190.52" width="10.3" height="16.06" fill="#f2b3bb"/>
            <g>
              <path d="M233.56,206.72l-5.32,28.54a4.12,4.12,0,0,1-4,3.36c-8.75.1-32.09.37-40.89.29a4.11,4.11,0,0,1-4-3.38l-5.15-28.38a4.11,4.11,0,0,1,4-4.84l51.25-.46A4.12,4.12,0,0,1,233.56,206.72Z" fill="#e6e6e6"/>
              <rect x="178.83" y="238.4" width="50.2" height="3.93" rx="1.08" transform="matrix(1, 0, 0, 1, -1.02, 0.87)" fill="#b3b3b3"/>
              <path d="M207.93,221.7a3.29,3.29,0,0,0-1-2.24,3,3,0,0,1-2.46,1.35,2.8,2.8,0,0,1-2.93-2,3.55,3.55,0,0,0-2,3.19,4,4,0,0,0,4.33,3.47C206.18,225.38,208,223.7,207.93,221.7Z" fill="#fff"/>
            </g>
            <path d="M210.65,178.09c-1.66-3.64-1.06-9.39-4.24-8.79s-3.33,2.43-3.33,2.43-.91-2.73-2.58-2.43-4.39,1.37-4.85,7,2.27,7.73-2.27,9.4a8.61,8.61,0,0,0-2.76,1.59c1.68,6.61,6.85,11.44,13,11.44,7.41,0,13.42-7,13.55-15.8C214.92,182,211.7,180.38,210.65,178.09Z" fill="#fed4d5"/>
            <path d="M173.68,260.57c5.86,6.67,11.72,1.41,17.78,1.82,5.16.34,31,29.83,38.52,38.58l1.58-1.81s-46.67-59.4-56.36-61.52c-6.15-1.34-9.37,1.69-10.91,4.1C169.09,245.11,168.76,255,173.68,260.57Z" fill="#231f20" opacity="0.58" style="mix-blend-mode: overlay"/>
            <path d="M265.68,174.39l-3.09.33a21.11,21.11,0,0,0-8.4,10.06s-9.08.37-12.49,4.06l-1.88,2.56,2.81,3.9,13-6s11.7-11.59,11.6-11.75S265.68,174.39,265.68,174.39Z" fill="#fff"/>
            <polygon points="266.12 173.2 255.38 184.77 270.29 207.93 279.25 195.55 266.12 173.2" fill="#2f3655"/>
            <polygon points="237.93 191.5 252.85 186.55 267.75 209.71 252.82 212.71 237.93 191.5" fill="#2f3655"/>
            <rect x="259.77" y="183.24" width="3.79" height="28.17" transform="translate(-65.16 172.99) rotate(-32.76)" fill="#1a2138"/>
            <path d="M137.23,174.39l3.09.33a21.05,21.05,0,0,1,8.4,10.06s9.08.37,12.49,4.06l1.88,2.56-2.81,3.9-13-6s-11.7-11.59-11.6-11.75S137.23,174.39,137.23,174.39Z" fill="#fff"/>
            <polygon points="136.79 173.2 147.53 184.77 132.62 207.93 123.66 195.55 136.79 173.2" fill="#2f3655"/>
            <polygon points="164.98 191.5 150.06 186.55 135.16 209.71 150.09 212.71 164.98 191.5" fill="#2f3655"/>
            <rect x="139.35" y="183.24" width="3.79" height="28.17" transform="translate(153.24 439.7) rotate(-147.24)" fill="#1a2138"/>
            <path d="M189.11,219.53s-2.18-4.13-1.54-5.74a1.74,1.74,0,0,1,2.14-1.15s-3.39-6,.53-5.88,4.5,2.87,4.46,5.78-2.4,7.81-2.4,7.81Z" fill="#fed4d5"/>
            <polygon points="186.66 222.8 187.58 217.15 194.4 218.03 192.86 223.84 186.66 222.8" fill="#2f3655"/>
            <path d="M174.29,256.42c-3-3.75,3.4-30.14,9.66-33.43s9.91-3.28,12.15.56,1.93,32.23-7,36.78C179.79,265.06,174.17,257.22,174.29,256.42Z" fill="#fb9844"/>
            <path d="M217.25,218.2s2-4.2,1.34-5.79a1.75,1.75,0,0,0-2.19-1.07s3.18-6.1-.74-5.85-4.39,3-4.25,5.93,2.69,7.72,2.69,7.72Z" fill="#fed4d5"/>
            <path d="M234.59,254.19c2.81-4.91-4.6-29.81-10.86-33.06s-10-2.92-12.12,1-1.56,34.8,8.33,36.5C229.17,260.22,232,258.32,234.59,254.19Z" fill="#fb9844"/>
            <polygon points="219.82 221.38 218.7 215.77 211.91 216.9 213.66 222.64 219.82 221.38" fill="#2f3655"/>
            <path d="M234.59,254.19c2.81-4.91-4.6-29.81-10.86-33.06s-10-2.92-12.12,1-1.56,34.8,8.33,36.5C229.17,260.22,232,258.32,234.59,254.19Z" fill="#fb9844"/>
            <path d="M214.52,186.05c0,.67-1.19,1.21-2.65,1.21s-2.66-.54-2.66-1.21,1.19-1.22,2.66-1.22S214.52,185.38,214.52,186.05Z" fill="#231f20" style="mix-blend-mode: overlay"/>
            <path d="M199.29,186.65c0,.67-1.12,1.21-2.5,1.21s-2.5-.54-2.5-1.21,1.12-1.21,2.5-1.21S199.29,186,199.29,186.65Z" fill="#231f20" style="mix-blend-mode: overlay"/>
            <path d="M216.71,238.25c-2.83-10.11-.59-15.94,1.86-19.09-3.28-.69-5.52.28-7,3-2.1,3.92-1.56,34.8,8.33,36.5,3.88.67,6.62.71,8.69.24C225.35,256,219.94,249.73,216.71,238.25Z" fill="#231f20" opacity="0.58" style="mix-blend-mode: overlay"/>
            <path d="M196.1,223.55c-1.89-3.23-4.78-3.73-9.39-1.84a25.78,25.78,0,0,1,4.4,13c.12,6.9-1.62,19.49-10.59,26.68a11.47,11.47,0,0,0,8.57-1.11C198,255.78,198.35,227.39,196.1,223.55Z" fill="#231f20" opacity="0.58" style="mix-blend-mode: overlay"/>
          </g>
          <g>
            <g>
              <path d="M362.14,367a49.85,49.85,0,1,1-49.84-49.85A49.85,49.85,0,0,1,362.14,367Z" fill="#40c0c6"/>
              <g>
                <path d="M330.67,337.52c-.64-.64-1.13,1.28-.45,1.48S331.67,338.53,330.67,337.52Z" fill="#108c92"/>
                <path d="M295.5,408.2c-.34-1.91-2.8-1.57-4-1s-1,3.25-.62,4.84a49.62,49.62,0,0,0,8.27,3.08,1.59,1.59,0,0,0-.25-1C298.22,413.06,295.83,410.1,295.5,408.2Z" fill="#108c92"/>
                <path d="M352.73,358.36c2.24.11,5.49-3,5-4.26s-3.13-.67-3.92-2.58-2-3.47-1.23-3.8,2.35,4.92,7.1,4v0c-.1-.28-.74-2-1.56-4.16a50.25,50.25,0,0,0-5.45-9.65c.31.47,1.58,4.6-.09,4.72s-2-4-2-4.6a43.76,43.76,0,0,0-1.65-4.69l-.2-.22c-.21-.23-.59-.62-1.07-1.11a50.54,50.54,0,0,0-9.39-7.45c-.21.58.16,1.57-.24,2.05-.56.67-2.24,2.35-4.15,2.24s-2.8-1-1.68-1.68,1.77-.23,2.24-2.36c.44-1.94,0-2.35-.11-2.42a51.4,51.4,0,0,0-6.59-2.69c-.8,2.1-1,4.11.77,4.22s2.79.56,2.24,1.91-1.34,1.56-2.58,2.34-2.58,1.91-2.8.79-1.57-2.91-2-4.15-.56-2.46-1.46-1.34-2,2.13-2.83,3.36.93,1.34,2.6,2,2,1.79,1.57,2.57.74,1.05,1.12,1.91c.27.59.9,1.79,0,2.35s-3.8-1.12-4.7-.56-.22,3.92-.56,4.59,2.28.9,2.87,1.46,2.84-.68,3.4-1.57.45-1.91,1.57-2.91,2.13-.56,3-.9,0-.9.9-.34,4.48,2.8,4.26,3.48-1.79.22-1.91,1.12.79,1.28,1.35,1.26,1.45-1.48,2-1.82,1.68,1.07,3,1.82,1.79-2.27,2.47-2.72,5.6-.34,5.71.34-4.59-.12-5.15,1.34,1.79,1.9,3,2.8,2,4,2.13,6.27S350.49,358.24,352.73,358.36Z" fill="#108c92"/>
                <path d="M321.37,341.78c-.84-.26-2.19.33-2.5,2.35s-2,2.47-3.1,4-1.57,8-1,10.2,3.7,5.71,5.83,6.05a28.61,28.61,0,0,0,7.51,0c2-.34,4,1.79,4,3.8s2.24,4.15,2.13,5.94-1.56,5.49,0,8.62,3.81,6.05,3.92,7.06,4.48-.45,6.61-3,2.24-2.36,2.91-5.05,2.13-3.69,2.35-5.15a20,20,0,0,0,0-5.15c-.22-2.12,3.92-7,4.14-9s-2.34-1.9-3.36-3.36-4.47-8.18-4.81-10.3-4.37-2.58-5.49-3.25-2.69.56-4.36-.56-4.83-4.26-6.27-4.26S322.83,342.23,321.37,341.78Z" fill="#108c92"/>
                <path d="M277,363.27a5.38,5.38,0,0,1-.45,3.77c-.9,1.62-1.24,3,0,5.66s3,3.58,4.37,6,1.12,6.39,1.34,12.21,2.24,10.42,5.6,11.76-1.23-2-.9-4.25.23-3.48,1.46-5.16,2-1,3.51-4,1.08-4,2.87-5,4.37.1,4.93-3.37-1.68-2.46.79-5.6-.11-3.69-2.24-4.93S294,369,293,367.77s-.89-.9-2.69-2.8-3.13-1.68-5.48-3.26-4.39-2.79-5.66-1.79S276.86,362.63,277,363.27Z" fill="#108c92"/>
                <path d="M285.42,325.05c-1.17.75-2.31,1.56-3.41,2.4.4,1.8-1.41,2.68-2,3.46s.11,2.8-.45,2.92-1.12-2.24-1.19-3.33A49.93,49.93,0,0,0,265.1,351a26.26,26.26,0,0,1,1.72,5.95c.34,2,3.47.9,4.48,2.46a14.23,14.23,0,0,0,4.15,3.7c1.23.79,0-.78-.79-2.58s-1.79-3.8-1.57-5.1-1.12-1.73-2-.72-1.46,1.23-1.9-1.12,2.12-2.69,3.46-3.25,2,.45,2.92,1.23.78-.56,1-3,4.15-7.17,5.37-9.46,2.58-3.09,2.91-4.31,3-.68,5.27.1,2.13-.66,1.23-1.78-1.68-1.46-.78-2.24-.23-1.46-1.12-2.58-.9-2.69-1.23-3.18-1.68,1.62-2.8,1.72S285.12,325.25,285.42,325.05Z" fill="#108c92"/>
                <path d="M294.71,320.39a13.78,13.78,0,0,1,2,2.58c.78,1.34,2.24,2.34,3,0s1.86-4.6,1.86-4.63A49.89,49.89,0,0,0,294.71,320.39Z" fill="#108c92"/>
              </g>
            </g>
            <path d="M414.74,206.94s3.81-2.57,5.85-3.73,6.74-4.23,7.51-2.19-4.57,3.77-4.57,3.77,14.52-1.9,14.66,1.15-8.51,6-15.4,4.91l-6.87,3Z" fill="#fed4d5"/>
            <path d="M322.92,231.88l-2.57-5.6,48.45-1.68,46.76-19.78,3.86,8.47s-40.9,32.83-90.72,38.51Z" fill="#004d40"/>
            <path d="M335.21,300.75s45.12-8.84,55.72-1.84,14.85,27.49-15.85,37.23-60.52,5.06-60.52,5.06l-13.72,12.55s-3.85,0-3.56-6.71,8-10.93,8-10.93l3.82-3.86,28.18-3.32-22.1.42S314.08,304,315,303.72,335.21,300.75,335.21,300.75Z" fill="#4d4d4d"/>
            <path d="M314.66,341.21a11.92,11.92,0,0,1-.89-2.9c-.35-2.08.37-5.15.8-6.7l10.49-1.24a69.41,69.41,0,0,0,0,11.77C319.14,341.85,315.31,341.31,314.66,341.21Z" fill="#edb49f"/>
            <path d="M305.25,336.11l3.82-3.86,28.18-3.32-22.1.42s-.08-1.94-.18-4.74l2.59.18c8.55.6,29-3.33,37.55-8.28s17.71-2.42,17.71-2.42c-10,1.11-18.32,9.9-28.34,14s-31.78,7.39-34.35,7.62-8.51,7.08-8.49,11.14a13.07,13.07,0,0,0,1.12,5.14l-1.92,1.76s-3.85,0-3.56-6.71S305.25,336.11,305.25,336.11Z" opacity="0.34" style="mix-blend-mode: overlay"/>
            <path d="M296.56,300.92s-45.2-8.46-55.74-1.37S226.2,327.16,257,336.64s60.56,4.55,60.56,4.55l13.83,12.43s3.84,0,3.49-6.74S326.82,336,326.82,336L323,332.19l-28.2-3.08,22.1.23s.85-25.31-.11-25.63S296.56,300.92,296.56,300.92Z" fill="#4d4d4d"/>
            <path d="M342,296.6l-10.5-65.84a5.46,5.46,0,0,0-5.42-4.6l-23.16.1c-1.5,0-12.76.26-15.16,4.22l-25.09,49.76c-4.11,6.15,8.74,14.74,12.85,8.59l18.35-27.59-4.3,35.64a5.45,5.45,0,0,0,3,5.55c15.51,7.6,31,7.83,46.6-.12A5.44,5.44,0,0,0,342,296.6Z" fill="#004d40"/>
            <path d="M326.08,197.33c.47-.09,8.75-11.86.25-17.68,0,0-.76,4.4-3.18,5.37,0,0-1.48-3.3-3.42-4.06a11.54,11.54,0,0,1-7.8,4.33c-4.84.3-8.69-2.69-12.5-.46s-3.21,5.21-3.21,5.21-5.4,1.56-5.16,6.09,6.27,12.63,6.27,12.63,4.33,2.08,7.75.42.67-8.14,2.31-9.77S326.08,197.33,326.08,197.33Z" fill="#f7931e"/>
            <path d="M306,212.2l-2,15.39c-.32,8,17.78,8.72,18.1.72l-2.45-13.12-13-2.83" fill="#fed4d5"/>
            <path d="M326.91,180.09c.72,2.33,1.51,6.83-1.87,9.54l-1.61-2s-1.9,4.25-8.46,5.8-13.21.14-14,2.86a3.3,3.3,0,0,0,1.53,3.92s-4.16-1-5.44,1.14a4.89,4.89,0,0,0-.62,3.93s-4.26-4.71-4.12-8.39,3.9-6.86,3.9-6.86-5.4,1.56-5.16,6.09,6.27,12.63,6.27,12.63,4.33,2.08,7.75.42.67-8.14,2.31-9.77,18.69-2.08,18.69-2.08C326.54,197.24,334.42,186,326.91,180.09Z" opacity="0.32" style="mix-blend-mode: overlay"/>
            <path d="M321.17,223.42l-1.54-8.23-13-2.83-.64-.16-.8,6.09A24.4,24.4,0,0,0,321.17,223.42Z" opacity="0.76" style="mix-blend-mode: overlay"/>
            <path d="M324.82,193s6.58,18.29,3.24,22.87-4.56,5.8-10.66,5.54-12.14-6.89-12.14-6.89-4.87-1.49-6.75-4.38-1-7.32,1.52-6.34a8.17,8.17,0,0,1,3.67,2.86s3.26.82,2.77-2.51-2.73-3.86-1.31-6.59S323.15,199.41,324.82,193Z" fill="#fed4d5"/>
            <path d="M324.82,193a4,4,0,0,1-2.49,2.62c2.08,5.65,5.57,15.93,4.5,18.79a18.89,18.89,0,0,1-5,6.77c2.64-.56,3.94-2.12,6.27-5.31C331.4,211.33,324.82,193,324.82,193Z" opacity="0.76" style="mix-blend-mode: overlay"/>
            <path d="M310.89,301.32c5.33-1.51,2.94-12.18,2.71-15s-13-4.21-15.83-6.76S296.59,254,296.59,254c-4.45,5-8.46,13.7-10.79,19.34l8-12.08-4.3,35.64a5.45,5.45,0,0,0,3,5.55,52.25,52.25,0,0,0,24.68,5.73C313.4,306.18,307,302.43,310.89,301.32Z" opacity="0.34" style="mix-blend-mode: overlay"/>
            <path d="M299.71,285.53l11.58,2.31s-.89-2.73,2.73-3,3.94,4.3,3.94,4.3,7,.05,8.16,4.77-1.53,9.83-5.59,9-10.43-2.27-12-3.91l-1.61-1.64-9.81-3.16Z" fill="#edb49f"/>
            <path d="M268.4,290.27l37.73,8.66,2.6-13.33-38.38-8.38C262.3,276,260.35,289.07,268.4,290.27Z" fill="#00695c"/>
            <path d="M317.45,341.2a12.13,12.13,0,0,0,.86-2.91c.33-2.08-.41-5.14-.86-6.7L307,330.44a68.52,68.52,0,0,1,.06,11.78C313,341.88,316.8,341.3,317.45,341.2Z" fill="#edb49f"/>
            <path d="M326.82,336,323,332.19l-28.2-3.08,22.1.23s.06-1.94.14-4.74l-2.59.2c-8.54.68-29.06-3.08-37.62-8s-17.74-2.27-17.74-2.27c10.05,1,18.41,9.75,28.46,13.76s31.85,7.12,34.42,7.33,8.57,7,8.59,11.07a12.94,12.94,0,0,1-1.09,5.14l1.95,1.75s3.84,0,3.49-6.74S326.82,336,326.82,336Z" opacity="0.34" style="mix-blend-mode: overlay"/>
            <g>
              <path d="M356.73,284.14l-7.26,39A5.62,5.62,0,0,1,344,327.7c-11.94.15-43.82.51-55.83.4a5.6,5.6,0,0,1-5.47-4.62l-7-38.75a5.62,5.62,0,0,1,5.48-6.62l70-.62A5.62,5.62,0,0,1,356.73,284.14Z" fill="#e6e6e6"/>
              <rect x="281.99" y="327.4" width="68.55" height="5.36" rx="1.47" transform="translate(-1.4 1.35) rotate(-0.24)" fill="#b3b3b3"/>
              <path d="M321.74,304.59a4.55,4.55,0,0,0-1.42-3,4.09,4.09,0,0,1-3.36,1.84,3.8,3.8,0,0,1-4-2.74,4.87,4.87,0,0,0-2.72,4.36c.1,2.74,2.75,4.86,5.92,4.74S321.83,307.32,321.74,304.59Z" fill="#fff"/>
            </g>
            <path d="M318.63,208.93c0,.45-1.52.83-3.39.84s-3.4-.36-3.4-.81,1.52-.83,3.39-.83S318.63,208.48,318.63,208.93Z" opacity="0.76" style="mix-blend-mode: overlay"/>
          </g>
          <g>
            <g>
              <path d="M364.13,96.66a26.22,26.22,0,1,0-41.57,21.23v6a11.35,11.35,0,0,0,11.35,11.36h9a11.35,11.35,0,0,0,11.35-11.36v-6.74A26.16,26.16,0,0,0,364.13,96.66Z" fill="#fff200"/>
              <path d="M352,145.25c0,10.35-26.8,10.35-26.8,0v-14H352Z" fill="#bcbec0"/>
              <g>
                <rect x="325.23" y="133.39" width="26.8" height="3.01" fill="#808285"/>
                <path d="M352,145.25v-3.34h-26.8v3.34a5.21,5.21,0,0,0,.18,1.33h26.44A5.69,5.69,0,0,0,352,145.25Z" fill="#808285"/>
              </g>
            </g>
            <circle cx="338.54" cy="97.95" r="17.57" fill="#fff9a9"/>
            <g>
              <path d="M336.44,63.74a2.19,2.19,0,0,1-2.19-2.19V55a2.19,2.19,0,0,1,4.37,0v6.55A2.19,2.19,0,0,1,336.44,63.74Z" fill="#fff200"/>
              <path d="M336.44,41.76a2.18,2.18,0,0,1-2.19-2.18V24.16a2.19,2.19,0,1,1,4.37,0V39.58A2.18,2.18,0,0,1,336.44,41.76Z" fill="#fff200"/>
              <path d="M336.44,10.92a2.19,2.19,0,0,1-2.19-2.18V2.18a2.19,2.19,0,0,1,4.37,0V8.74A2.19,2.19,0,0,1,336.44,10.92Z" fill="#fff200"/>
            </g>
            <g>
              <path d="M311.92,76.36a2.18,2.18,0,0,1-3.09.13L304,72.06a2.19,2.19,0,1,1,3-3.22l4.83,4.43A2.2,2.2,0,0,1,311.92,76.36Z" fill="#fff200"/>
              <path d="M295.73,61.5a2.18,2.18,0,0,1-3.08.13L281.29,51.2A2.18,2.18,0,1,1,284.24,48L295.6,58.41A2.18,2.18,0,0,1,295.73,61.5Z" fill="#fff200"/>
              <path d="M273,40.64a2.18,2.18,0,0,1-3.08.13l-4.83-4.43a2.18,2.18,0,0,1,2.95-3.22l4.83,4.43A2.18,2.18,0,0,1,273,40.64Z" fill="#fff200"/>
            </g>
            <g>
              <path d="M304.63,103a2.18,2.18,0,0,1-2,2.36l-6.53.56a2.19,2.19,0,0,1-.37-4.36l6.53-.56A2.19,2.19,0,0,1,304.63,103Z" fill="#fff200"/>
              <path d="M282.74,104.83a2.18,2.18,0,0,1-2,2.36l-15.37,1.31a2.18,2.18,0,0,1-.37-4.35l15.36-1.31A2.18,2.18,0,0,1,282.74,104.83Z" fill="#fff200"/>
              <path d="M252,107.45a2.19,2.19,0,0,1-2,2.37l-6.52.55a2.18,2.18,0,1,1-.38-4.35l6.53-.56A2.18,2.18,0,0,1,252,107.45Z" fill="#fff200"/>
            </g>
            <g>
              <path d="M365.16,76.36a2.17,2.17,0,0,0,3.08.13l4.83-4.43a2.18,2.18,0,0,0-2.95-3.22l-4.83,4.43A2.18,2.18,0,0,0,365.16,76.36Z" fill="#fff200"/>
              <path d="M381.34,61.5a2.19,2.19,0,0,0,3.09.13L395.79,51.2a2.18,2.18,0,0,0-3-3.22L381.48,58.41A2.19,2.19,0,0,0,381.34,61.5Z" fill="#fff200"/>
              <path d="M404.06,40.64a2.19,2.19,0,0,0,3.09.13L412,36.34a2.19,2.19,0,1,0-3-3.22l-4.83,4.43A2.2,2.2,0,0,0,404.06,40.64Z" fill="#fff200"/>
            </g>
            <g>
              <path d="M372.45,103a2.17,2.17,0,0,0,2,2.36l6.53.56a2.19,2.19,0,0,0,.37-4.36l-6.53-.56A2.19,2.19,0,0,0,372.45,103Z" fill="#fff200"/>
              <path d="M394.34,104.83a2.18,2.18,0,0,0,2,2.36l15.37,1.31a2.18,2.18,0,1,0,.37-4.35l-15.37-1.31A2.17,2.17,0,0,0,394.34,104.83Z" fill="#fff200"/>
              <path d="M425.07,107.45a2.2,2.2,0,0,0,2,2.37l6.53.55A2.18,2.18,0,1,0,434,106l-6.53-.56A2.18,2.18,0,0,0,425.07,107.45Z" fill="#fff200"/>
            </g>
          </g>
          <g>
            <path d="M535.51,96.19,489.8,122.58a3.81,3.81,0,0,1-5.72-3.3V66.49a3.81,3.81,0,0,1,5.72-3.3l45.71,26.39A3.81,3.81,0,0,1,535.51,96.19Z" fill="#cee8f4" fill-rule="evenodd"/>
            <path d="M545.12,82.8l-45.71,26.39a3.82,3.82,0,0,1-5.73-3.31V53.1a3.82,3.82,0,0,1,5.73-3.31l45.71,26.4A3.81,3.81,0,0,1,545.12,82.8Z" fill="#26a69a"/>
            <path d="M505.51,53.32l-6.1-3.53a3.82,3.82,0,0,0-5.73,3.31v52.78a3.82,3.82,0,0,0,5.73,3.31l44.2-25.52a3.34,3.34,0,0,0-.05-.78c-2-11.87-42,3.5-44.7-11.22C497.23,62.85,501.59,56.78,505.51,53.32Z" fill="#26a69a" opacity="0.1" style="mix-blend-mode: overlay"/>
          </g>
        </g>
      </g>
    </g>
  </g>
</svg>
