<svg xmlns="http://www.w3.org/2000/svg" viewBox="0 0 368.59 243.01">
  <title>marketing</title>
  <g id="b46b27df-a781-4f36-ac65-1717efa59852" data-name="Layer 2">
    <g id="ba8b02c2-f5fc-4707-a2fc-60116f0c0c36" data-name="Layer 1">
      <g>
        <path d="M81,1.07C43.06,4-2.22,33.38.08,63.67s46.17,58.5,84.14,55.61,59.82-59.5,57.52-89.8S119-1.82,81,1.07Z" fill="#00897b" opacity="0.1" style="isolation: isolate"/>
        <g>
          <path d="M298.42,121.61c-38-2.88-83.25-32.31-80.94-62.6S263.64.52,301.61,3.41s59.83,59.5,57.52,89.79S336.39,124.5,298.42,121.61Z" fill="#f2f2f2"/>
          <rect x="217.59" y="14.32" width="72.06" height="74.56" fill="#3f3d56"/>
          <path d="M254,36.57h-.35a15,15,0,1,0,13.22,7.88L254.4,53.8Z" fill="none"/>
          <path d="M266.84,44.45a15,15,0,1,1-13.22-7.88H254l-.16-6.42h-.19A21.45,21.45,0,1,0,272,40.56Z" fill="#00897b"/>
          <path d="M266.84,44.45,272,40.56a21.44,21.44,0,0,0-18.21-10.41l.16,6.42A15,15,0,0,1,266.84,44.45Z" fill="#00897b" opacity="0.3" style="isolation: isolate"/>
          <line x1="264.41" y1="70.16" x2="271.94" y2="77.77" fill="none" stroke="#2f2e41" stroke-miterlimit="10" stroke-width="0.31"/>
          <line x1="269.54" y1="23.55" x2="264.3" y2="32.89" fill="none" stroke="#2f2e41" stroke-miterlimit="10" stroke-width="0.31"/>
          <rect x="265.83" y="77.77" width="12.37" height="2.82" fill="#f2f2f2"/>
          <rect x="263.01" y="20.75" width="12.37" height="2.82" fill="#f2f2f2"/>
          <rect x="296.54" y="13.7" width="72.06" height="30.08" fill="#3f3d56"/>
          <path d="M325.65,36.88H317.5a28.27,28.27,0,0,1,0-9.71h8.15A17.43,17.43,0,0,0,325.65,36.88Z" fill="#ff6584"/>
          <path d="M348.41,36.88h-8.14a28.27,28.27,0,0,1,0-9.71h8.14A17.43,17.43,0,0,0,348.41,36.88Z" fill="#ff6584"/>
          <path d="M314.08,30.3h-8.15a28.78,28.78,0,0,1,0-9.71h8.15A17.43,17.43,0,0,0,314.08,30.3Z" fill="#00897b"/>
          <path d="M328.65,30.3h8.14a28.27,28.27,0,0,0,0-9.71h-8.14A17.43,17.43,0,0,1,328.65,30.3Z" fill="#00897b"/>
          <path d="M351.05,30.3h8.14a28.27,28.27,0,0,0,0-9.71h-8.14A17.43,17.43,0,0,1,351.05,30.3Z" fill="#00897b"/>
          <path d="M354.81,121.94c0,3.12-14.6,9.27-32.51,9.27S290,125.06,290,121.94s14.44-2,32.34-2S354.81,118.82,354.81,121.94Z" fill="#3f3d56"/>
          <path d="M354.81,121.94c0,3.12-14.6,9.27-32.51,9.27S290,125.06,290,121.94s14.44-2,32.34-2S354.81,118.82,354.81,121.94Z" opacity="0.1" style="isolation: isolate"/>
          <ellipse cx="322.3" cy="121.96" rx="32.43" ry="5.66" fill="#3f3d56"/>
          <ellipse cx="322.3" cy="121.96" rx="25.38" ry="4.43" opacity="0.1" style="isolation: isolate"/>
          <path d="M311.1,88.42H303a28.27,28.27,0,0,1,0-9.71h8.14A17.61,17.61,0,0,0,311.1,88.42Z" fill="#00897b"/>
          <path d="M336.87,39.24l1.12.56s6.07,15.21,4,18.85-8.5,10.46-8.5,10.46l-1.21-3.46,5-10.75Z" fill="#575a89"/>
          <path d="M336.87,39.24l1.12.56s6.07,15.21,4,18.85-8.5,10.46-8.5,10.46l-1.21-3.46,5-10.75Z" opacity="0.1" style="isolation: isolate"/>
          <path d="M335.66,115.31s1.59,3.64.75,3.92a9.57,9.57,0,0,1-2.9.28c-1,0-2.24-.37-2.42-.74s.74-2.8.74-2.8Z" fill="#f2f2f2"/>
          <path d="M314.29,117.18s1,3.27.56,3.45-2,1-2.8.75a9.7,9.7,0,0,1-2.43-1.21c-.28-.28,0-1.78,0-1.78l1.3-1.86Z" fill="#f2f2f2"/>
          <path d="M332.67,68.64l1.34.47a16.36,16.36,0,0,1,0,4.29c-.37,1.12-1.21,9.24-.75,10.92a14.94,14.94,0,0,1,.19,4.39s2.8,9.15,2.24,11.11a11.38,11.38,0,0,0,.09,6.16c.56,1.4,1,2,.75,3.08s-.84,1.68-.28,2.61,1.68,1.22,1.12,2.06-1.12,1.49-.93,2-5,1.59-5.42.75c0,0,1.5-1.31,0-2.06s-1-3.54-1-3.54-2.62-10.74-2.52-11.58-4.11-13.91-4.11-13.91-6.16,18.67-6.53,19.51.46,2.9,0,3.46.18,2-.47,2.52,1.12,2.61,0,3.36a5.16,5.16,0,0,0-1.59,3.54c.1.47-4.67-.09-4.67-.74a4.71,4.71,0,0,0-.37-2.34c-.47-1.12-.75-1.86-.37-2.24s.65-.84.28-2.14.56-5.32.28-6.07a43.45,43.45,0,0,1-.19-5.79s.93-7.37.65-8.59a2.94,2.94,0,0,1,.1-2c.09-.46.65-5.5,1-6.25s.84-13.53,3-14.19S332.67,68.64,332.67,68.64Z" fill="#2f2e41"/>
          <path d="M333.42,118.67s3.36-.56,3.55,0,.74,5-.56,5-3.55.37-3.92-.47-2.15-1.4-2.15-1.4-2.61-.75-2.61-1.59.09-2.15.56-2.24,2.33-1.12,2.33-1.49S333.42,118.67,333.42,118.67Z" fill="#2f2e41"/>
          <path d="M312.42,120.17s2.43-.75,3-.28,1.3,5.6,0,5.51-4.77.46-5-.28-2.71-.94-2.71-.94-2.71-1.31-2.52-2.71.47-1.86,1.59-2,2-1.4,2.05-1.49.92-.77,1,0S311.21,120.45,312.42,120.17Z" fill="#2f2e41"/>
          <circle cx="320.07" cy="24.02" r="5.69" fill="#ffb9b9"/>
          <path d="M325,25.33s.37,6.25,1.77,6.81-7.09.56-7.09.56-.09-3.92-1.31-4.85S325,25.33,325,25.33Z" fill="#ffb9b9"/>
          <path d="M327.26,30.74s-5.79-2.14-7.84,1.22c0,0-6.53,3.08-7,4.94s3.92,15.87,3.92,15.87,0,11.58-.93,12.79-2.71,2.52-1.5,2.8,20.26,2.34,20.16,1.12-1.3-2.24,0-3,.19-1.58,1-4S338,40,338,40s-1.4-2.53-1.68-2.81S327.26,30.74,327.26,30.74Z" fill="#575a89"/>
          <path d="M310.55,71.63s-3.64,8.21-.47,9.33,3-8.68,3-8.68Z" fill="#ffb9b9"/>
          <path d="M322.8,25.08c-.33-.66-.82-1.42-1.56-1.38a2.77,2.77,0,0,0-1,.42,1,1,0,0,1-1.06.06c-.44-.32-.31-1.07-.7-1.45s-1.31-.18-1.59-.7c-.15-.29,0-.63-.1-1a3.36,3.36,0,0,1-1.34-.15,1.17,1.17,0,0,1-.78-1,1.19,1.19,0,0,1,.42-.81,7.41,7.41,0,0,1,2.11-.93c.57-.26,1.06-.65,1.61-.92a6,6,0,0,1,3.11-.48,7.13,7.13,0,0,1,4.4,1.77,4.41,4.41,0,0,1,1.28,4.4c-.29.86-.89,1.59-1.23,2.44a8.47,8.47,0,0,0-.42,1.79l-.24,1.45c0-.22-.46-.79-.62-.92-.36-.3-.87-.2-1.2-.47C323.37,26.83,323.09,25.66,322.8,25.08Z" fill="#2f2e41"/>
          <path d="M314.57,36.25l-1.5.93s-2.43,14.66-2.15,16.71-1.12,13.63-.65,14.57.65,1.12.65,1.68-1.3,2.61-.46,3,3.92,1,3.92,0-.56-2.42.47-3.08,1.77-4.85,1.77-4.85.47-4.3.93-5.14a17.15,17.15,0,0,0,1.12-5.22c0-1.31,1.12-6.63.47-9.34S318.3,35.5,314.57,36.25Z" opacity="0.1" style="isolation: isolate"/>
          <path d="M313.91,36l-1.49.93S310,51.56,310.27,53.61s-1.12,13.63-.65,14.57.65,1.12.65,1.68-1.31,2.61-.47,3,3.93,1,3.93,0-.56-2.42.46-3.08S316,64.91,316,64.91s.46-4.3.93-5.14A17.15,17.15,0,0,0,318,54.55c0-1.31,1.12-6.63.47-9.34S317.65,35.22,313.91,36Z" fill="#575a89"/>
        </g>
        <g>
          <ellipse cx="144.42" cy="117.03" rx="21.83" ry="2.16" fill="#e6e6e6"/>
          <ellipse cx="20.23" cy="116.03" rx="7.82" ry="1.08" fill="#e6e6e6"/>
          <rect x="6.71" y="15.23" width="102.35" height="51.35" fill="#e6e6e6"/>
          <rect x="11.41" y="19.4" width="92.95" height="42.99" fill="#fff"/>
          <polygon points="11.54 62.52 11.29 62.27 23.77 49.79 27.69 53.71 34.56 46.83 43 55.27 57.36 40.91 63.89 47.44 78.17 33.17 86.17 41.18 100.84 26.5 101.09 26.75 86.17 41.67 78.17 33.66 63.89 47.93 57.36 41.41 43 55.77 34.56 47.33 27.69 54.2 23.77 50.28 11.54 62.52" fill="#00897b"/>
          <circle cx="78.25" cy="33.68" r="2.09" fill="#00897b"/>
          <circle cx="34.74" cy="47.25" r="2.09" fill="#00897b"/>
          <circle cx="63.98" cy="47.43" r="2.09" fill="#00897b"/>
          <circle cx="43.61" cy="55.26" r="2.09" fill="#00897b"/>
          <circle cx="57.02" cy="41.51" r="2.09" fill="#00897b"/>
          <circle cx="86.08" cy="41.51" r="2.09" fill="#00897b"/>
          <path d="M17.78,110.71a10.08,10.08,0,0,0,3.75,5.07,10.05,10.05,0,0,0,.68-6.27,10.08,10.08,0,0,0-3.75-5.07A10.05,10.05,0,0,0,17.78,110.71Z" fill="#e6e6e6"/>
          <path d="M19,110a10,10,0,0,1,2.61,5.74,10.09,10.09,0,0,1-5.81-2.45,10.14,10.14,0,0,1-2.61-5.75A10,10,0,0,1,19,110Z" fill="#00897b"/>
          <path d="M137.09,39.43l1.33,13.17h11l-.53-20c0-4.3-3-8.07-7.29-8.07s-7.11,3.59-7.11,7.9l-.7,20.2h1.79Z" fill="#2f2e41"/>
          <path d="M143.64,108.51s-.47,3-1.26,3.47,4.1,1.57,4.1,1.57l.79-4.73Z" fill="#fbbebe"/>
          <path d="M149.47,74.28l1.74,2-.79,7.1-.63,14s1.26,12.15,0,12.46-6.94.16-6.78-.63.31-1.42.63-2.52-.32-5-.32-5l.79-4.41-2.84-19.09Z" fill="#2f2e41"/>
          <path d="M143.8,111.5s-1.74-.31-1.9,0-3.15,3.63-3.62,3.63-3.95,3.15-.32,3.31,9.62-2.68,9.62-2.68-.88-4-.83-3.82S143.8,112.29,143.8,111.5Z" fill="#2f2e41"/>
          <path d="M141.9,104.25s4.42,4.89,4.58,5.36,2.52,0,2.52,0l.95-3.16-.79-1.1-4.42-3.63Z" fill="#fbbebe"/>
          <path d="M148.21,107.87,145.93,110s2.91,4.47,2.91,4.94.16,4.42,1.74,3.79,1.73-6.94,1.73-6.94-.15-6.47-1.1-6.94a7.81,7.81,0,0,0-3-.33S149.47,107.72,148.21,107.87Z" fill="#2f2e41"/>
          <path d="M135.12,60.24s-.79,2.52-1,3.16a14.08,14.08,0,0,0-1.1,5c0,2.68.32,5.84,0,6.15s-5.36,18-3.15,19.88,9.46,8.2,9.93,9,.63,2.68,1.58,2.36,4.57-3.47,4.73-4.1-2-1.73-2-1.73-4.41-6.47-5.52-6.31-1-.79-.79-1.26.48-.79,0-.79-.16-1.26,0-1.89,3.79-9.15,3.79-9.15l9.62-4.26s-.47-11.51-3.94-14.67l-.79-1.89S137.64,59.14,135.12,60.24Z" fill="#2f2e41"/>
          <path d="M139.06,35.32s.79,5.52-1.1,5.84-3.47.15-3.47.31,4.73,5.05,4.73,5.05l4.42-.32L147.58,42S144,41.31,144,39.11s-.15-3.79-.15-3.79Z" fill="#ffb8b8"/>
          <circle cx="141.51" cy="32.72" r="4.89" fill="#ffb8b8"/>
          <path d="M138.66,40.76s-7.64.71-8.11,2.76,3.15,14.83,3.62,15.93a3.47,3.47,0,0,1,.32,1.9,6.23,6.23,0,0,1,5-1.11,32,32,0,0,0,7.25.32s1.42-5.84,1.74-6.47A23.9,23.9,0,0,0,150.11,49c0-.94,1.89-4.89,1.89-4.89a4.3,4.3,0,0,0-4.42-2.68s-1.51-.68-1.94-.18a5.79,5.79,0,0,1-5.79,1.76C136.86,42.1,138.66,40.76,138.66,40.76Z" fill="#e6e6e6"/>
          <path d="M149,43.36l3,.79s2.21,8.05,2.36,8.21a3.88,3.88,0,0,1,.32,1.1,1.53,1.53,0,0,0,.31.63c.32.47.79.16.48.79s-.79.31-.48.95a6.51,6.51,0,0,1,.16,2.36s-.79-3-3.63-2.21l-1.89-8.51Z" fill="#e6e6e6"/>
          <polygon points="149.99 44.87 149.98 44.91 144.79 61.28 141.38 60.52 137.69 59.7 142.89 42.82 149.99 44.87" fill="#00897b"/>
          <path d="M133.6,43.36l-3,.79s-2.21,8.05-2.36,8.21a3.88,3.88,0,0,0-.32,1.1,1.53,1.53,0,0,1-.31.63c-.32.47-.79.16-.48.79s.79.31.48.95a6.51,6.51,0,0,0-.16,2.36s.79-3,3.62-2.21l1.9-8.51Z" fill="#e6e6e6"/>
          <path d="M128.39,55.51l-1,1.65s-.44,3.08,1.77,3.08,5.36-3,5.36-3a6.28,6.28,0,0,1,2.53-.47c.94.16,6.15,0,3.94-2.68s-6,0-6,0l-4,1.89-2-1.1Z" fill="#ffb8b8"/>
          <path d="M129.73,53.38l1.58,2.52s-3.63.48-3.94,1.27,1.42-4.11,1.42-4.11Z" fill="#e6e6e6"/>
          <path d="M137.44,31c3.17-1.71,4.48-1.64,8.43,0l1-2.56a1.82,1.82,0,0,0-1.82-1.83H138a1.82,1.82,0,0,0-1.82,1.83Z" fill="#2f2e41"/>
          <polygon points="149.98 44.91 144.79 61.28 141.38 60.52 146.5 43.91 149.98 44.91" opacity="0.2" style="isolation: isolate"/>
          <polygon points="147.58 43.91 142.38 60.78 149.47 62.36 154.68 45.96 147.58 43.91" fill="#00897b"/>
          <path d="M154.21,55.51l1,1.65s.44,3.08-1.77,3.08-5.37-3-5.37-3a6.22,6.22,0,0,0-2.52-.47c-.95.16-6.15,0-3.94-2.68s6,0,6,0L151.52,56l2.06-1.1Z" fill="#ffb8b8"/>
          <path d="M152.87,53.38l-1.58,2.52s3.63.48,3.94,1.27-1.42-4.11-1.42-4.11Z" fill="#e6e6e6"/>
        </g>
      </g>
      <g>
        <path d="M238.79,164.23H191.26v-1H169.71v1H122a3.22,3.22,0,0,0-3.21,3.22h0v65.08a3.22,3.22,0,0,0,3.21,3.22H238.79a3.22,3.22,0,0,0,3.22-3.22V167.45a3.22,3.22,0,0,0-3.22-3.22Z" fill="#3f3d56"/>
        <rect x="123.08" y="169.92" width="114.62" height="64.66" opacity="0.1" style="isolation: isolate"/>
        <circle cx="180.29" cy="166.98" r="1.18" fill="#00897b"/>
        <path d="M245.23,233.4H234v-.81a.16.16,0,0,0-.16-.16H230a.16.16,0,0,0-.16.16h0v.81h-2.39v-.81a.16.16,0,0,0-.16-.16h-3.84a.16.16,0,0,0-.16.16h0v.81h-2.39v-.81a.16.16,0,0,0-.16-.16h-3.84a.16.16,0,0,0-.16.16h0v.81h-2.4v-.81a.16.16,0,0,0-.16-.16h-3.83a.16.16,0,0,0-.16.16h0v.81h-2.4v-.81a.16.16,0,0,0-.16-.16h-3.83a.16.16,0,0,0-.16.16h0v.81h-2.4v-.81a.16.16,0,0,0-.16-.16h-3.83a.16.16,0,0,0-.16.16h0v.81h-2.4v-.81a.16.16,0,0,0-.16-.16h-30a.16.16,0,0,0-.16.16h0v.81H162v-.81a.16.16,0,0,0-.16-.16H158a.16.16,0,0,0-.16.16h0v.81h-2.39v-.81a.16.16,0,0,0-.16-.16h-3.84a.16.16,0,0,0-.16.16h0v.81h-2.4v-.81a.16.16,0,0,0-.16-.16h-3.83a.16.16,0,0,0-.16.16h0v.81h-2.4v-.81a.16.16,0,0,0-.16-.16h-3.83a.16.16,0,0,0-.16.16h0v.81h-2.4v-.81a.16.16,0,0,0-.16-.16h-3.83a.16.16,0,0,0-.16.16h0v.81h-2.4v-.81a.16.16,0,0,0-.16-.16h-3.84a.16.16,0,0,0-.16.16h0v.81H117.7a3.83,3.83,0,0,0-3.83,3.83V239a3.82,3.82,0,0,0,3.83,3.83H245.23a3.83,3.83,0,0,0,3.83-3.83v-1.74A3.84,3.84,0,0,0,245.23,233.4Z" fill="#3f3d56"/>
        <rect x="157.2" y="177.26" width="46.4" height="48.78" fill="#00897b"/>
        <path d="M181.75,175.23s-4-1.41-6.5,4.24a113.06,113.06,0,0,1-6.5,11.87l2.26.57s.56-4,2-4.53l-.57,5.09s17,5.94,24.59-.56l-.28-2s1.13.28,1.13,2l.85-.85a15.15,15.15,0,0,0-3.4-4c-1.67-1.48-2.24-4.31-2.44-6.07a7.22,7.22,0,0,0-1.69-4C189.49,175.07,186.41,173,181.75,175.23Z" fill="#2f2e41"/>
        <path d="M159.88,180.56l-1.64-17.17s-3.29-9.32,1.64-8.59,2,7.86,2,7.86l2.74,17.9Z" fill="#ffb9b9"/>
        <circle cx="183.82" cy="186.77" r="6.58" fill="#ffb9b9"/>
        <path d="M179.07,189.7s-.37,7.49-2.2,8-6.94,6.57-4.56,8.4,16.07.55,16.07.55l-1.28-9.5s-2.92-2-.54-5.48Z" fill="#ffb9b9"/>
        <path d="M192.78,226.4H167c.09-1.65.32-4,.62-6.56.1-.77.19-1.58.29-2.38.89-7.14,2.07-15,2.07-15l.31-.72,3.16-7.32h0l4.17,1.63.15.7,1.13,5.33,7.32-5.9,6.75-1.06.46-.07.82,7.76s0,1.74-.08,4.21c0,2.84-.09,6.66-.08,9.92,0,1.57,0,3,0,4.15,0,1,.07,1.73.12,2.18A4.16,4.16,0,0,1,192.78,226.4Z" fill="#3f3d56"/>
        <polygon points="173.59 195.36 173.4 194.26 168.29 188.05 165.36 177.64 158.24 180.38 163.35 192.99 170.66 202.3 173.59 195.36" fill="#3f3d56"/>
        <path d="M175.18,187.56s2.26-3.11,4.24-3.67,2.26-3.39,2.26-3.39,5.08,5.65,8.19,5.93.29-6.78.29-6.78l-5.66-1.42-5.37.57-4.24,2.83Z" fill="#2f2e41"/>
        <path d="M193.38,220.19l-17.48.69s-9.63,2.21-8.34-2.61,8-1.1,8-1.1l18.1-.68Z" fill="#ffb9b9"/>
        <path d="M191.4,196.37l1.64-1.28s2.74-1.46,3.29,3.65,4.57,22.11.55,22.29-14.25.37-14.25.37l1.09-5.67,8.41-.55Z" fill="#3f3d56"/>
        <polygon points="191.95 204.22 191.4 214.64 183.36 216.28 190.67 213.36 191.95 204.22" opacity="0.15" style="isolation: isolate"/>
        <rect x="139.79" y="146.01" width="44.58" height="11.69" fill="#00897b"/>
        <rect x="87.38" y="242.64" width="193.84" height="0.37" fill="#3f3d56"/>
        <path d="M262.39,229.88a11.9,11.9,0,0,1,2.76,7,10.3,10.3,0,0,1-9.51-10.21A12,12,0,0,1,262.39,229.88Z" fill="#00897b"/>
        <path d="M270.66,234.28a12,12,0,0,1-7,2.76,10.28,10.28,0,0,1,10.2-9.51A11.93,11.93,0,0,1,270.66,234.28Z" fill="#00897b"/>
        <path d="M270,242.64H259.59a1.06,1.06,0,0,1-.95-.6l-2.26-4.64a1.05,1.05,0,0,1,.49-1.41,1.07,1.07,0,0,1,.46-.11h14.88a1.05,1.05,0,0,1,1.06,1.06,1,1,0,0,1-.1.46L270.91,242A1.06,1.06,0,0,1,270,242.64Z" fill="#3f3d56"/>
        <path d="M98.51,229.88a11.94,11.94,0,0,1,2.77,7,10.31,10.31,0,0,1-9.52-10.21A12,12,0,0,1,98.51,229.88Z" fill="#00897b"/>
        <path d="M104.44,242.64H94.07a1.06,1.06,0,0,1-.95-.6l-2.26-4.64a1,1,0,0,1,.49-1.41,1.07,1.07,0,0,1,.46-.11h14.88a1.05,1.05,0,0,1,1.06,1.06,1,1,0,0,1-.1.46L105.39,242A1.06,1.06,0,0,1,104.44,242.64Z" fill="#3f3d56"/>
        <rect x="145.46" y="150.71" width="33.25" height="2.29" fill="#fff"/>
      </g>
    </g>
  </g>
</svg>
