<svg xmlns="http://www.w3.org/2000/svg" viewBox="0 0 369.84 258.69">
  <title>workshops</title>
  <g id="b9b984dc-f1a4-43ad-83d5-ee1ca8ae1545" data-name="Layer 2">
    <g id="b397b6e2-2a66-4457-9bbd-2adcba40c54f" data-name="Layer 1">
      <g>
        <path d="M89.57,250.68a32.9,32.9,0,0,0,2.82,5.43,24.73,24.73,0,0,0,1.71,2.35l0,0H285.45l0,0c-.17-.13-1.19-.95-2.76-2.35-1.12-1-2.54-2.31-4.13-3.88-13-12.78-38-43-17.17-70.76,19.33-25.77-1.48-30.44-15.21-31A39.47,39.47,0,0,0,230.69,153a137.18,137.18,0,0,1-33,7.8l-1.51.16a144.27,144.27,0,0,1-24.06.44h0l-.71,0a142.8,142.8,0,0,1-23.54-3.64l-1.49-.35c-25.76-6-49.51,14.35-43.57,37.31,2.2,8.49,1.64,17.54-5.68,24.86C85.12,231.49,86.57,243.26,89.57,250.68Z" fill="#00897b" opacity="0.1" style="isolation: isolate"/>
        <path d="M182.29,239.53c3.74,4,3.93,9.91,3.93,9.91s-5.87-.61-9.61-4.62-3.93-9.91-3.93-9.91S178.55,235.52,182.29,239.53Z" fill="#00897b"/>
        <path d="M194.06,245.8c-4,3.73-9.91,3.93-9.91,3.93s.61-5.87,4.62-9.61,9.91-3.93,9.91-3.93S198.07,242.06,194.06,245.8Z" fill="#00897b"/>
        <path d="M193.06,257.7H178.3a1.5,1.5,0,0,1-1.35-.85l-3.22-6.6a1.51,1.51,0,0,1,1.36-2.17h21.18a1.51,1.51,0,0,1,1.36,2.17l-3.21,6.6A1.52,1.52,0,0,1,193.06,257.7Z" fill="#3f3d56"/>
        <circle cx="259.32" cy="164.88" r="12.29" fill="#ffb8b8"/>
        <path d="M250.15,171s2.32,17.45-1.24,19.4,21.18,2.14,21.18,2.14-5.52-15.13-3-19.76Z" fill="#ffb8b8"/>
        <path d="M288.17,192.66,286.11,202l-4.35,19.83-.13,1.09-1.51,12.57-1,8.35-.67,5.61c-4.07,2.09-7,3.54-7,3.54s-.25-1.27-.66-2.9a62.58,62.58,0,0,1-12.63,2.56c1.63,1.82,2.38,3.53,1.36,4.79-3.07,3.8-15.75-4.16-20.18-7.13a12.8,12.8,0,0,0-.12,2.14l-3.39-2.61.33-6,.57-10.16.71-12.74a13.79,13.79,0,0,1-.56-1.68c-1-3.69-2.3-11.07-3.27-17.26-.78-5-1.36-9.19-1.49-10.08,0-.12,0-.18,0-.18l18.78-8.3c1.34,3.1,7.57,4,7.57,4a20.91,20.91,0,0,0,9.21-3.08Z" fill="#d0cde1"/>
        <path d="M272.85,249.46s-.79.27-2.08.66a62.58,62.58,0,0,1-12.63,2.56c-3.86.25-7.12-.35-7.72-2.87a2.65,2.65,0,0,1,.9-2.7c2.35-2.19,8.52-3,13.4-3.24,1.38-.07,2.66-.11,3.72-.12,1.81,0,3,0,3,0l0,.11Z" fill="#ffb8b8"/>
        <path d="M249.1,153.26l-2.3-.92s4.81-5.28,11.49-4.82l-1.88-2.07s4.59-1.84,8.77,3a40.62,40.62,0,0,1,6.32,8.89H274l-1,2.26,3.6,2.26-3.69-.41a12.74,12.74,0,0,1,.1,3.75,4.88,4.88,0,0,1-1.78,3.18h0s-2.85-5.9-2.85-6.82v2.3s-2.29-2.07-2.29-3.45L264.76,162l-.62-2.53L256.41,162l1.25-2.07-4.8.69,1.88-2.53s-5.43,3-5.64,5.52a12.1,12.1,0,0,1-1.8,4.92S243.05,156.71,249.1,153.26Z" fill="#2f2e41"/>
        <path d="M301.52,235.75c-1.25,1.35-4.35,3.4-8.11,5.61-1.4.82-2.89,1.67-4.41,2.51-3.62,2-7.41,4-10.55,5.61-4.07,2.09-7,3.54-7,3.54s-.25-1.27-.66-2.9a24.19,24.19,0,0,0-2.24-6.25l-.09-.12c-.25-.33-.5-.52-.75-.52l12.43-7.71,5.38-3.33L281.63,223l-4.86-11.59L279.7,202l2.95-9.37h5.52s1.82,4,4.16,9.55c.35.83.71,1.7,1.08,2.6C298.22,216.5,304.21,232.83,301.52,235.75Z" fill="#d0cde1"/>
        <path d="M259.5,257.47c-3.07,3.8-15.75-4.16-20.18-7.13-1-.65-1.54-1.06-1.54-1.06l4.05-5.41,1.29-1.71s1.15.61,2.85,1.6l.19.11c1.46.86,3.3,2,5.16,3.24a39,39,0,0,1,6.82,5.57C259.77,254.5,260.52,256.21,259.5,257.47Z" fill="#ffb8b8"/>
        <path d="M246,243.76a8.81,8.81,0,0,0-1.36.11c-3.84.66-5,4.14-5.29,6.47a12.8,12.8,0,0,0-.12,2.14l-3.39-2.61-1.24-1a22.5,22.5,0,0,1-7.92-5,39.35,39.35,0,0,1-5.34-6.33,55.63,55.63,0,0,1-4.13-7.08,5.18,5.18,0,0,1-.07-4.42l4.2-9.37L227.45,203l.15-1c1.22-7,4.48-10.08,4.48-10.08h2.49L236.24,202l2.07,12.53-1.45,4.73-3.36,10.94,3.21,3.48Z" fill="#d0cde1"/>
        <path d="M248.79,214.57l2.13,2.49c.79-.15,1.62-.33,2.47-.53l-.61-2,1.49,1.75a201.16,201.16,0,0,0,20.21-6.54s-12.07.89-21.09-1.08a8.58,8.58,0,0,0-9.73,4.84c-.95,2.18-.8,4.06,2.58,4.06a21.61,21.61,0,0,0,3.4-.32Z" fill="#00897b"/>
        <path d="M297.37,255.43v1a2.28,2.28,0,0,1-.15.81,2.06,2.06,0,0,1-.17.33,2.23,2.23,0,0,1-1.93,1.1h-74.6a2.26,2.26,0,0,1-1.93-1.1,2,2,0,0,1-.16-.33,2.28,2.28,0,0,1-.15-.81v-1a2.24,2.24,0,0,1,2.24-2.24h4.3v-.48a.09.09,0,0,1,.09-.09h2.25a.09.09,0,0,1,.09.09h0v.48h1.4v-.48a.09.09,0,0,1,.1-.09H231a.09.09,0,0,1,.09.09h0v.48h1.41v-.48a.09.09,0,0,1,.09-.09h2.24a.09.09,0,0,1,.1.09h0v.48h1.4v-.48a.09.09,0,0,1,.09-.09h2.25a.09.09,0,0,1,.09.09h0v.48h1.4v-.48a.09.09,0,0,1,.1-.09h2.24a.09.09,0,0,1,.09.09h0v.48H244v-.48a.09.09,0,0,1,.09-.09h2.24a.09.09,0,0,1,.1.09h0v.48h1.4v-.48a.09.09,0,0,1,.09-.09h17.58a.09.09,0,0,1,.09.09h0v.48H267v-.48a.09.09,0,0,1,.09-.09h2.24a.1.1,0,0,1,.1.09v.48h1.4v-.48a.09.09,0,0,1,.09-.09h2.25a.09.09,0,0,1,.09.09h0v.48h1.4v-.48a.09.09,0,0,1,.09-.09H277a.09.09,0,0,1,.09.09h0v.48h1.4v-.48a.1.1,0,0,1,.1-.09h2.24a.09.09,0,0,1,.09.09v.48h1.41v-.48a.09.09,0,0,1,.09-.09h2.24a.09.09,0,0,1,.1.09h0v.48h1.4v-.48a.09.09,0,0,1,.09-.09h2.25a.09.09,0,0,1,.09.09h0v.48h6.54a2.24,2.24,0,0,1,2.25,2.24Z" fill="#3f3d56"/>
        <path d="M291.36,212.72H263.55v-.57H251v.57H223a1.88,1.88,0,0,0-1.88,1.88h0v38.08a1.88,1.88,0,0,0,1.88,1.88h68.34a1.88,1.88,0,0,0,1.88-1.88h0V214.6a1.88,1.88,0,0,0-1.88-1.88Z" fill="#3f3d56"/>
        <circle cx="257.25" cy="226.02" r="4.18" fill="none" stroke="#d0cde1" stroke-miterlimit="10" stroke-width="2"/>
        <circle cx="255.91" cy="227.52" r="4.18" fill="#d0cde1"/>
        <circle cx="133.27" cy="188.19" r="6.08" fill="#2f2e41"/>
        <path d="M135,182.28a6.08,6.08,0,0,1,5.35,9,6.08,6.08,0,1,0-9.5-7.59,5.51,5.51,0,0,0-.6.91A6.06,6.06,0,0,1,135,182.28Z" fill="#2f2e41"/>
        <circle cx="121.91" cy="170.32" r="17.86" fill="#2f2e41"/>
        <path d="M107.89,159.24a17.86,17.86,0,0,1,24.76-1.88c-.15-.14-.29-.28-.45-.41a17.86,17.86,0,0,0-23.73,26.7l.46.39A17.87,17.87,0,0,1,107.89,159.24Z" fill="#2f2e41"/>
        <circle cx="121.76" cy="176.52" r="11.5" fill="#a0616a"/>
        <path d="M113.59,180.16s1.51,13.92-.91,15.44,13.92,3.63,13.92,3.63-2.42-15.14,3.64-19.07Z" fill="#a0616a"/>
        <path d="M128.12,193.18s4.51-2.11-2-1.36A23.47,23.47,0,0,1,114,189.69s-2-2-2.27.16.91,6.05-5.75,6.66-12.72-1.22-15.14,3.33-1.21,24.21-1.21,24.21,4.54,16.35,8.17,18.77,35.42-.9,35.42-.9l9.09-16.35V206.5s-1.22-6.66-9.69-4.85c0,0-5.45-1.21-5.15-3.93S128.12,193.18,128.12,193.18Z" fill="#d0cde1"/>
        <path d="M99,254.39c.19-.81.32-1.27.32-1.27l-.1-.67-1-6.77-.42-2.86c3.64-1.51,4.54-8.47,4.54-8.47l.14-.08.62-.38h0l2.23-1.33,0,0,.9.6,1.83,1.22a21.46,21.46,0,0,0,16.91,3.87,18.24,18.24,0,0,0,4-1.15l4.41-1.47.14,0,.13,0,2.58.39h.05l.21,0-.59,4.13-.87,6a17.71,17.71,0,0,1,6.11,6.3c.39.63.77,1.27,1.14,1.94.48.87.94,1.78,1.38,2.7a3.54,3.54,0,0,1,.16.34c.17.36.33.72.5,1.09H98.24c.06-.37.12-.72.18-1.06v0l.06-.34C98.69,256,98.89,255.07,99,254.39Z" fill="#2f2e41"/>
        <path d="M97.24,196.2a23.26,23.26,0,0,1,2.12,13.63c-1.21,7.56,3.63,26.33,3.63,26.33l3.63-.9s-2.42-15.75-1.81-19.38.6-17.86-2.43-19.68A4.41,4.41,0,0,0,97.24,196.2Z" fill="#2f2e41"/>
        <path d="M132.45,202.5,133.72,236l2.42,1.52s3.48-36.79,1.66-36.79h-3.69a1.67,1.67,0,0,0-1.67,1.67A.28.28,0,0,0,132.45,202.5Z" fill="#2f2e41"/>
        <circle cx="104.65" cy="233.89" r="1.51" fill="#00897b"/>
        <circle cx="134.93" cy="235.41" r="1.51" fill="#00897b"/>
        <polygon points="111.92 162.15 111.92 173.65 114.58 173.65 117.97 170.02 117.52 173.65 129.3 173.65 128.57 170.02 130.03 173.65 131.9 173.65 131.9 162.15 111.92 162.15" fill="#2f2e41"/>
        <ellipse cx="110.1" cy="174.1" rx="0.91" ry="1.67" fill="#a0616a"/>
        <ellipse cx="133.42" cy="174.1" rx="0.91" ry="1.67" fill="#a0616a"/>
        <path d="M139.62,235.26s-13.77-2.58-14.68,2,15.29,2.58,15.29,2.58Z" fill="#a0616a"/>
        <path d="M139.32,204.07s33,26.34,26.94,32.7-29.06,4.54-29.06,4.54l1.51-7.57L152,232.23l-6.66-6.66-6.05.6Z" fill="#d0cde1"/>
        <path d="M90.58,248l4.24,3.33s3,9.39,7.56,6.66-4.23-12.41-4.23-12.41L93,243.73Z" fill="#a0616a"/>
        <path d="M94.82,199.23l-4.23,1.27S61.21,222.24,60,228.29s5.75,9.39,5.75,9.39l26.34,12.41,2.73-7.27L82.4,236.47s.91-1.82-2.72-2.12-4.24-4.24-4.24-4.24,7.27-11.2,11.2-8.78,5.15,4.24,5.15,4.24Z" fill="#d0cde1"/>
        <path d="M155.1,255.43v1a2.28,2.28,0,0,1-.15.81,2,2,0,0,1-.16.33,2.25,2.25,0,0,1-1.93,1.1H78.26a2.23,2.23,0,0,1-1.93-1.1,2.06,2.06,0,0,1-.17-.33,2.28,2.28,0,0,1-.15-.81v-1a2.24,2.24,0,0,1,2.25-2.24h4.3v-.48a.09.09,0,0,1,.09-.09h2.24a.09.09,0,0,1,.1.09h0v.48h1.4v-.48a.09.09,0,0,1,.09-.09h2.25a.09.09,0,0,1,.09.09h0v.48h1.4v-.48a.1.1,0,0,1,.1-.09h2.24a.09.09,0,0,1,.09.09h0v.48h1.41v-.48a.09.09,0,0,1,.09-.09h2.24a.1.1,0,0,1,.1.09h0v.48h1.4v-.48a.09.09,0,0,1,.09-.09h2.25a.09.09,0,0,1,.09.09h0v.48h1.4v-.48a.09.09,0,0,1,.1-.09h2.24a.09.09,0,0,1,.09.09h0v.48h1.41v-.48a.09.09,0,0,1,.09-.09h17.57a.09.09,0,0,1,.1.09h0v.48h1.4v-.48a.09.09,0,0,1,.09-.09h2.25a.09.09,0,0,1,.09.09v.48h1.4v-.48a.1.1,0,0,1,.1-.09h2.24a.09.09,0,0,1,.09.09h0v.48h1.41v-.48a.09.09,0,0,1,.09-.09h2.24a.09.09,0,0,1,.1.09h0v.48h1.4v-.48a.09.09,0,0,1,.09-.09h2.25a.09.09,0,0,1,.09.09v.48h1.4v-.48a.09.09,0,0,1,.1-.09h2.24a.09.09,0,0,1,.09.09h0v.48h1.41v-.48a.09.09,0,0,1,.09-.09h2.24a.1.1,0,0,1,.1.09h0v.48h6.54a2.24,2.24,0,0,1,2.24,2.24Z" fill="#3f3d56"/>
        <path d="M149.1,212.72H121.29v-.57H108.68v.57H80.76a1.88,1.88,0,0,0-1.88,1.88v38.08a1.88,1.88,0,0,0,1.88,1.88H149.1a1.88,1.88,0,0,0,1.88-1.88V214.6A1.88,1.88,0,0,0,149.1,212.72Z" fill="#3f3d56"/>
        <circle cx="114.98" cy="226.02" r="4.18" fill="none" stroke="#d0cde1" stroke-miterlimit="10" stroke-width="2"/>
        <circle cx="113.65" cy="227.52" r="4.18" fill="#d0cde1"/>
        <rect x="62.94" y="257.44" width="247.04" height="0.52" fill="#3f3d56"/>
        <path d="M282.91,100.22a32.61,32.61,0,0,1-2.82,5.44,24.83,24.83,0,0,1-1.72,2.35s0,0,0,0H87l0,0c.17-.14,1.18-1,2.76-2.35,1.12-1,2.54-2.31,4.13-3.88,13-12.79,38-43,17.17-70.76C91.78,5.25,112.59.58,126.32,0a39.11,39.11,0,0,1,15.47,2.53,137.67,137.67,0,0,0,33,7.8l1.5.16a145.49,145.49,0,0,0,24.07.44h0l.71-.05a143.87,143.87,0,0,0,23.54-3.64l1.49-.36c25.76-6,49.51,14.36,43.57,37.31-2.2,8.49-1.64,17.54,5.68,24.87C287.36,81,285.91,92.81,282.91,100.22Z" fill="#00897b" opacity="0.1" style="isolation: isolate"/>
        <path d="M282.91,100.22a32.61,32.61,0,0,1-2.82,5.44,24.83,24.83,0,0,1-1.72,2.35H87.05c.17-.14,1.18-1,2.76-2.35,1.12-1,2.54-2.31,4.13-3.88l20.16-4.17a4.23,4.23,0,0,1,.79-.08l21.5,0h10.7l9,0H168l24.69,0H203.3l4.24,0h1.4l12.33,0h24.32l13.5,0,11.39,0a3.79,3.79,0,0,1,.94.12Z" fill="#454b69"/>
        <path d="M89.81,105.66H280.09a24.83,24.83,0,0,1-1.72,2.35H87.05C87.22,107.87,88.23,107.05,89.81,105.66Z" fill="none"/>
        <path d="M89.81,105.66H280.09a24.83,24.83,0,0,1-1.72,2.35H87.05C87.22,107.87,88.23,107.05,89.81,105.66Z" opacity="0.4" style="isolation: isolate"/>
        <path d="M213.26,52.11l-.39.08L195.6,55.51c-5,1-10.11,1.93-15.21,1.56a56.79,56.79,0,0,1-10.69-2.32c-2-.55-4.13-.76-4.81-3-.94-3.1.59-7.69.94-10.83a30.08,30.08,0,0,0-.06-9.28,17.15,17.15,0,0,0-.54-2c-.61-1.83-1.58-3.72-1.06-5.57A7.69,7.69,0,0,1,167,20.55c2.3-1.9,4.65-4,5.57-6.86.44-1.37.53-2.86,1-4.22a9.87,9.87,0,0,1,5.76-5.58,21.7,21.7,0,0,1,8.13-1.24,55.25,55.25,0,0,1,7.27.48,20.84,20.84,0,0,1,7.6,2.21,9.49,9.49,0,0,1,4.8,6.05c.76,3.69-1.35,7.62-.22,11.19.57,1.81,1.9,3.28,2.81,4.93a11.72,11.72,0,0,1,.86,9.13c-1.09,3.4-3.78,6.84-2.41,10.14.88,2.1,3.12,3.22,4.68,4.89C213,51.82,213.14,52,213.26,52.11Z" fill="#454b69"/>
        <path d="M212.87,51.68v.51L195.6,55.51c-5,1-10.11,1.93-15.21,1.56a56.79,56.79,0,0,1-10.69-2.32c-2-.55-4.13-.76-4.81-3-.94-3.1.59-7.69.94-10.83s5.65-14.33,5-17.37l31.67,1.37c.22,1.68,8.59,10.13,8.07,11.74-1.1,3.4-3.79,6.85-2.41,10.15C209.08,48.9,211.31,50,212.87,51.68Z" opacity="0.1" style="isolation: isolate"/>
        <path d="M180.51,43.16a4.64,4.64,0,0,1-.26,3.17c-.72,1.25-2.3,1.64-3.72,1.93l-4.9,1a1.81,1.81,0,0,0-.94.37,1.59,1.59,0,0,0-.44,1.07,12.32,12.32,0,0,0,1,5.22c1.16,3.43,2.14,6.93,3.6,10.24a22,22,0,0,0,6.35,8.67,12.28,12.28,0,0,0,10.18,2.53c3.06-.76,5.57-2.92,7.73-5.21a18.52,18.52,0,0,0,4.32-6.42,22.21,22.21,0,0,0,1-5.26c.29-2.73.59-5.46.88-8.19.13-1.28.22-2.72-.61-3.7a4.37,4.37,0,0,0-1.37-1,58.37,58.37,0,0,1-5.62-3,9.09,9.09,0,0,1-3.84-4.93,20.12,20.12,0,0,0-.8-3.73,5.07,5.07,0,0,0-3.27-2.55,11.24,11.24,0,0,0-4.25-.17c-1.42.16-6.89.57-7.47,2.17-.32.86,1,2.71,1.3,3.55A25.27,25.27,0,0,1,180.51,43.16Z" fill="#efb7b9"/>
        <path d="M180.51,43.16a4.64,4.64,0,0,1-.26,3.17c-.72,1.25-2.3,1.64-3.72,1.93l-4.9,1a1.81,1.81,0,0,0-.94.37,1.59,1.59,0,0,0-.44,1.07,12.32,12.32,0,0,0,1,5.22c1.16,3.43,2.14,6.93,3.6,10.24a22,22,0,0,0,6.35,8.67,12.28,12.28,0,0,0,10.18,2.53c3.06-.76,5.57-2.92,7.73-5.21a18.52,18.52,0,0,0,4.32-6.42,22.21,22.21,0,0,0,1-5.26c.29-2.73.59-5.46.88-8.19.13-1.28.22-2.72-.61-3.7a4.37,4.37,0,0,0-1.37-1,58.37,58.37,0,0,1-5.62-3,9.09,9.09,0,0,1-3.84-4.93,20.12,20.12,0,0,0-.8-3.73,5.07,5.07,0,0,0-3.27-2.55,11.24,11.24,0,0,0-4.25-.17c-1.42.16-6.89.57-7.47,2.17-.32.86,1,2.71,1.3,3.55A25.27,25.27,0,0,1,180.51,43.16Z" opacity="0.1" style="isolation: isolate"/>
        <path d="M192.32,61.88l2.87-6.09c1.35-2.85,2.73-5.85,2.59-9,0-.63,0-1.41.51-1.7a1.51,1.51,0,0,1,.76-.1,30.57,30.57,0,0,1,8.87,1.8,3.48,3.48,0,0,1,1.5.87,3.53,3.53,0,0,1,.68,1.6,48,48,0,0,1,1,5.83,92.93,92.93,0,0,1,0,14.64l-.77,14.88a1.42,1.42,0,0,1-.12.61,1.32,1.32,0,0,1-1,.52,21.07,21.07,0,0,1-4.49.15c-10.54-.4-21.13-1-31.6.26,0-1.54,0-3.09-.07-4.64-.42-6.7-2.15-13.23-3.86-19.72-1-3.79-2-7.92-.35-11.49a4.92,4.92,0,0,1,1-1.52,5.71,5.71,0,0,1,2.53-1.26,16,16,0,0,1,4.87-.56L188.08,70.6c.49,1.08.9,2.22,1.39,3.28.45-1.84-.09-4,.45-6A37.36,37.36,0,0,1,192.32,61.88Z" fill="#fff"/>
        <path d="M191.18,78.14a6.75,6.75,0,0,0,5.17-2.28,16.09,16.09,0,0,0,3-5,50,50,0,0,0,2.55-7.94,19.19,19.19,0,0,0,.52-7c-.49-3.23-2.32-6.16-2.63-9.41a1.72,1.72,0,0,1,.44-1.58,1.8,1.8,0,0,1,1-.26c3.25-.19,6.82-.16,9.33,1.9.77.63,1.39,1.41,2.14,2.06,1.78,1.55,4.3,2.34,5.45,4.4A15,15,0,0,1,219,55.3a20.87,20.87,0,0,0,2.93,5c-1.1,4.63-2.36,9.26-3.46,13.89a60.46,60.46,0,0,1-2.3,8c-.66,1.7-1.49,3.44-1.29,5.27a12.8,12.8,0,0,0,.53,2.09,24.09,24.09,0,0,1,1,7.5l-49.13.12a18.16,18.16,0,0,0,2.81-11.62A12.74,12.74,0,0,0,168.54,80c-1.56-2.67-4.31-4.41-7-5.9-1.89-1-3.93,4.78-6,4.12a133.64,133.64,0,0,0,.34-13.72,6.34,6.34,0,0,1,.12-2.3c.17-.51.46-1,.66-1.45.81-2,0-4.47,1.35-6.14.9-1.17,2.48-1.5,3.77-2.21a22.8,22.8,0,0,0,3.49-2.89,15.55,15.55,0,0,1,8-3.54,10,10,0,0,1,1.51,4.47c.09,1,0,2,.17,3a14.89,14.89,0,0,0,1.3,3.86,138.94,138.94,0,0,0,7.53,15.29,16.09,16.09,0,0,0,2.91,3.83A6.67,6.67,0,0,0,191.18,78.14Z" fill="#00897b"/>
        <path d="M191.18,78.14a6.75,6.75,0,0,0,5.17-2.28,16.09,16.09,0,0,0,3-5,50,50,0,0,0,2.55-7.94,19.19,19.19,0,0,0,.52-7c-.49-3.23-2.32-6.16-2.63-9.41a1.72,1.72,0,0,1,.44-1.58,1.8,1.8,0,0,1,1-.26c3.25-.19,6.82-.16,9.33,1.9.77.63,1.39,1.41,2.14,2.06,1.78,1.55,4.3,2.34,5.45,4.4A15,15,0,0,1,219,55.3a20.87,20.87,0,0,0,2.93,5c-1.1,4.63-2.36,9.26-3.46,13.89a60.46,60.46,0,0,1-2.3,8c-.66,1.7-1.49,3.44-1.29,5.27a12.8,12.8,0,0,0,.53,2.09,24.09,24.09,0,0,1,1,7.5l-49.13.12a18.16,18.16,0,0,0,2.81-11.62A12.74,12.74,0,0,0,168.54,80c-1.56-2.67-4.31-4.41-7-5.9-1.89-1-3.93,4.78-6,4.12a133.64,133.64,0,0,0,.34-13.72,6.34,6.34,0,0,1,.12-2.3c.17-.51.46-1,.66-1.45.81-2,0-4.47,1.35-6.14.9-1.17,2.48-1.5,3.77-2.21a22.8,22.8,0,0,0,3.49-2.89,15.55,15.55,0,0,1,8-3.54,10,10,0,0,1,1.51,4.47c.09,1,0,2,.17,3a14.89,14.89,0,0,0,1.3,3.86,138.94,138.94,0,0,0,7.53,15.29,16.09,16.09,0,0,0,2.91,3.83A6.67,6.67,0,0,0,191.18,78.14Z" opacity="0.1" style="isolation: isolate"/>
        <circle cx="188.58" cy="28.01" r="14.76" fill="#efb7b9"/>
        <path d="M180.84,47.68c.41-3.82-1.18-7.56-3-11a22.46,22.46,0,0,1-2.22-5,6.34,6.34,0,0,1,.8-5.26,10.71,10.71,0,0,1,3.81-2.65c3.89-2.07,7.45-5.11,9.16-9.17-1,.53-.71,2.1.14,2.79a8.76,8.76,0,0,0,3.07,1.16c3.83,1.21,6.13,5,8,8.59a4.16,4.16,0,0,1,.6,1.86,3.76,3.76,0,0,1-.61,1.79,19.35,19.35,0,0,0-2.44,5,12.07,12.07,0,0,0,.68,6.27,13.33,13.33,0,0,0,3.25,5.87c1.65,1.55,4.22,2.32,6.25,1.32-2-3.49-4.13-7.39-3.34-11.35.38-1.89,1.41-3.61,1.85-5.5.83-3.59-.56-7.29-1.92-10.72l-4.07-10.23c-.62-1.57-1.33-3.24-2.75-4.12a7.46,7.46,0,0,0-3.26-.86A23.42,23.42,0,0,0,184,7.61c-6.17,2.47-10,8.54-13.1,14.43a12,12,0,0,0-1.79,5.63,15.43,15.43,0,0,0,.57,3.22,61.33,61.33,0,0,1,1.12,13.27c0,3.41-.14,6.62-1.63,9.73,2,.41,5,1.51,7,.7C178.88,53.55,180.51,50.34,180.84,47.68Z" fill="#454b69"/>
        <g opacity="0.1">
          <path d="M170.83,44.08q0-.72,0-1.47a61.3,61.3,0,0,0-1.12-13.26,22.77,22.77,0,0,1-.52-2.56,6.55,6.55,0,0,0-.05.89,16.23,16.23,0,0,0,.57,3.22A60.51,60.51,0,0,1,170.83,44.08Z"/>
          <path d="M206.83,32.41a10.49,10.49,0,0,0,.22-3.06,9.64,9.64,0,0,1-.22,1.51c-.44,1.9-1.47,3.6-1.85,5.5a9.49,9.49,0,0,0-.14,2.55c0-.34.08-.67.14-1C205.36,36,206.39,34.3,206.83,32.41Z"/>
          <path d="M201.06,28.24a2.53,2.53,0,0,0,.13-.76,4.2,4.2,0,0,0-.6-1.86c-1.84-3.56-4.13-7.38-8-8.59a8.76,8.76,0,0,1-3.07-1.16,2.2,2.2,0,0,1-.75-1.51,20.45,20.45,0,0,1-8.55,7.89,10.71,10.71,0,0,0-3.81,2.65,5.83,5.83,0,0,0-1,4.16,5.15,5.15,0,0,1,1-2.61,10.71,10.71,0,0,1,3.81-2.65,20.51,20.51,0,0,0,8.55-7.89,2.2,2.2,0,0,0,.75,1.51,9,9,0,0,0,3.07,1.16c3.83,1.21,6.13,5,8,8.59A7.88,7.88,0,0,1,201.06,28.24Z"/>
          <path d="M202.07,46.39a13.49,13.49,0,0,1-3.25-5.87,16.58,16.58,0,0,1-.83-3.74,13.58,13.58,0,0,0,.83,5.29,13.33,13.33,0,0,0,3.25,5.87c1.65,1.55,4.22,2.32,6.25,1.32L207.59,48A6,6,0,0,1,202.07,46.39Z"/>
          <path d="M180.84,46.13c-.33,2.66-2,5.87-4.6,6.92-1.84.73-4.46-.11-6.45-.57a14.65,14.65,0,0,1-.59,1.42c2.05.41,5,1.5,7,.7,2.64-1.05,4.27-4.26,4.6-6.92a12.15,12.15,0,0,0,0-2C180.87,45.83,180.85,46,180.84,46.13Z"/>
        </g>
        <path d="M201.7,88.82c-2.66-.43-5.36-1.24-8-.69a11,11,0,0,0-4.19,2,7.33,7.33,0,0,1,2,1.84,7.34,7.34,0,0,1,.61,1.7,14.84,14.84,0,0,1,.61,3.16,4.85,4.85,0,0,1-.82,3.06c3.36.33,6.61-.5,9.88-1.3a2.64,2.64,0,0,0,1-.43,2.19,2.19,0,0,0,.67-1.78,12.46,12.46,0,0,0-.66-3.46C202.4,91.56,202.1,90.16,201.7,88.82Z" fill="#fff"/>
        <path d="M219.66,59.78a4.82,4.82,0,0,1,3.1,2.33c2.12,3,3,6.74,4,10.31q1.9,6.66,4.46,13.11a20.18,20.18,0,0,0,1.33,2.87,7.66,7.66,0,0,1,1.13,2.2c.46,2-1.15,3.79-2.83,4.88a11.59,11.59,0,0,1-2.9,1.4,16.91,16.91,0,0,1-3.09.52l-9.55,1a63.13,63.13,0,0,1-13.24.49c-.28-1,.27-1.64.23-2.65a6.09,6.09,0,0,0-.63-2,13.12,13.12,0,0,1-1-3.7,5,5,0,0,0-.25-1.39,1.29,1.29,0,0,0-1-.86c2.58-.26,4.54-.74,7.13-1a6.44,6.44,0,0,0,2.77-.72,5.79,5.79,0,0,0,2-2.87A15.18,15.18,0,0,0,212.59,75c-.48-2.38-1.82-4.6-1.82-7a10.36,10.36,0,0,1,1.08-4.17,6.81,6.81,0,0,1,2.77-3.53A9.34,9.34,0,0,1,219.66,59.78Z" fill="#00897b"/>
        <path d="M219.66,59.78a4.82,4.82,0,0,1,3.1,2.33c2.12,3,3,6.74,4,10.31q1.9,6.66,4.46,13.11a20.18,20.18,0,0,0,1.33,2.87,7.66,7.66,0,0,1,1.13,2.2c.46,2-1.15,3.79-2.83,4.88a11.59,11.59,0,0,1-2.9,1.4,16.91,16.91,0,0,1-3.09.52l-9.55,1a63.13,63.13,0,0,1-13.24.49c-.28-1,.27-1.64.23-2.65a6.09,6.09,0,0,0-.63-2,13.12,13.12,0,0,1-1-3.7,5,5,0,0,0-.25-1.39,1.29,1.29,0,0,0-1-.86c2.58-.26,4.54-.74,7.13-1a6.44,6.44,0,0,0,2.77-.72,5.79,5.79,0,0,0,2-2.87A15.18,15.18,0,0,0,212.59,75c-.48-2.38-1.82-4.6-1.82-7a10.36,10.36,0,0,1,1.08-4.17,6.81,6.81,0,0,1,2.77-3.53A9.34,9.34,0,0,1,219.66,59.78Z" opacity="0.08" style="isolation: isolate"/>
        <path d="M159.82,57.54a12.46,12.46,0,0,0,1.27-4.63,16,16,0,0,0-1.23-5,29.41,29.41,0,0,1-1.32-6.23.83.83,0,0,1,.08-.6,1.09,1.09,0,0,1,.66-.3,5.31,5.31,0,0,0,2.84-2.2,24,24,0,0,0,2.9-4.85c.57-1.27,1.34-2.81,2.73-2.83a77.75,77.75,0,0,1-2.08,7.79c1.46-.37,2.84-.91,4.3-1.28a2.6,2.6,0,0,1,.88-.12,1.34,1.34,0,0,1,.9,2c.71.83,1.89,1,2.82,1.63s1.6,2,.77,2.7a2.16,2.16,0,0,0-.48.42c-.4.61.58,1.32.5,2s-.84.88-1.42.72a6.43,6.43,0,0,1-1.55-.91,1.61,1.61,0,0,0-1.69-.19,13.48,13.48,0,0,1-1,4.75c-.25.54-.58,1-.79,1.6a7.53,7.53,0,0,0-.36,1.88l-.63,5.72A10.11,10.11,0,0,1,159.82,57.54Z" fill="#efb7b9"/>
        <path d="M159.09,62.66,158.54,59a7.16,7.16,0,0,1-.09-.92,6,6,0,0,1,.75-2.47,22.58,22.58,0,0,0,9.67,1.93,1.49,1.49,0,0,0,1.22-.39,2.82,2.82,0,0,1,.35,2.55c-.24.83-.71,1.58-1,2.39a3.52,3.52,0,0,1-.58,1.18,2.51,2.51,0,0,1-1.91.58,12,12,0,0,1-2.15-.2C163,63.26,160.92,62.33,159.09,62.66Z" fill="#fff"/>
        <path d="M170.42,62.51q-3.54-.4-7-1.14a15,15,0,0,0-3.46-.46,4,4,0,0,1-2.23-.19,10.76,10.76,0,0,1-.09,6.71c-.46,1.29-1.16,2.49-1.5,3.82-.7,2.78.26,5.81-.62,8.54a2,2,0,0,1-.53.95c-.26.25-.63.38-.88.64a2.23,2.23,0,0,0-.39,1.52v4.74c0,3,0,6.23,1.62,8.78a8.34,8.34,0,0,0,9,3.56,6.59,6.59,0,0,0,2.43-1.2,11.15,11.15,0,0,0,2.62-3.54,15.25,15.25,0,0,0,2-4.88,14.13,14.13,0,0,0-.06-3.73c-.77-6.89-2.46-13.72-2.1-20.63A6.23,6.23,0,0,1,170.42,62.51Z" fill="#00897b"/>
        <path d="M180.28,91.09a20.5,20.5,0,0,1-3.59,0c-.86-.1-1.7-.32-2.56-.46A16.39,16.39,0,0,0,161,94.29c-.67.57-1.33,1.43-1,2.22s1.59.83,2.52.67a7.6,7.6,0,0,0-2.58,2,1.54,1.54,0,0,0-.46,1.1c.11.85,1.27,1,2.12.93a.71.71,0,0,0,.26,1,1.71,1.71,0,0,0,1.2.09,8.81,8.81,0,0,0,2.54-.88,1,1,0,0,0,.52,1.13,2.15,2.15,0,0,0,1.33.12c2.1-.34,3.86-1.81,5.91-2.38,3.28-.92,6.71.54,10.12.65a7.15,7.15,0,0,0,3.14-.52c1.19-.54,2.15-1.56,3.41-1.92s3,.06,4.29-.63c.93-.5.09-4.36-.15-5.11-.43-1.36-.87-2.26-2.32-2.4C188.16,90.05,184,90.88,180.28,91.09Z" fill="#efb7b9"/>
        <path d="M189.44,90s5.56,4.7,2.35,9.83l6.2-2.14V93.24c0-.21-2.35-3.42-2.35-3.42l-2.78-.43Z" fill="#fff"/>
        <path d="M131.23,89.74h2.09a4.3,4.3,0,0,1,4.3,4.31v6.39H126.93V94.05a4.31,4.31,0,0,1,4.3-4.31Z" fill="#3f3d56"/>
        <path d="M131.23,89.74h2.09a4.3,4.3,0,0,1,4.3,4.31v6.39H126.93V94.05a4.31,4.31,0,0,1,4.3-4.31Z" opacity="0.1" style="isolation: isolate"/>
        <circle cx="131.85" cy="91.24" r="0.86" fill="#3f3d56"/>
        <circle cx="131.85" cy="90.17" r="0.86" fill="#3f3d56"/>
        <circle cx="131.85" cy="89.1" r="0.86" fill="#3f3d56"/>
        <circle cx="131.85" cy="88.03" r="0.86" fill="#3f3d56"/>
        <circle cx="131.85" cy="86.96" r="0.86" fill="#3f3d56"/>
        <circle cx="131.85" cy="85.9" r="0.86" fill="#3f3d56"/>
        <circle cx="131.85" cy="84.82" r="0.86" fill="#3f3d56"/>
        <circle cx="133.13" cy="85.25" r="0.86" fill="#3f3d56"/>
        <circle cx="133.99" cy="84.82" r="0.86" fill="#3f3d56"/>
        <circle cx="134.84" cy="84.4" r="0.86" fill="#3f3d56"/>
        <circle cx="131.85" cy="83.76" r="0.86" fill="#3f3d56"/>
        <circle cx="131.85" cy="82.69" r="0.86" fill="#3f3d56"/>
        <circle cx="131.85" cy="81.62" r="0.86" fill="#3f3d56"/>
        <circle cx="131.85" cy="80.55" r="0.86" fill="#3f3d56"/>
        <path d="M135.4,77.79l-.64.07a5.9,5.9,0,0,0,.55-.57,3.63,3.63,0,0,0-.51-1,1.73,1.73,0,0,1-.69.21c-.21,0-.43.06-.64.07a11.37,11.37,0,0,0,.82-.86,3.64,3.64,0,1,0,1.19,2.69,3.36,3.36,0,0,0-.06-.63Z" fill="#00897b"/>
        <path d="M138.25,82a1.76,1.76,0,0,1-.71.24l-.64.07a7.82,7.82,0,0,0,.63-.66,2.14,2.14,0,1,0,.72.34Z" fill="#00897b"/>
        <circle cx="130.57" cy="85.25" r="0.86" fill="#3f3d56"/>
        <circle cx="129.71" cy="84.82" r="0.86" fill="#3f3d56"/>
        <circle cx="128.85" cy="84.4" r="0.86" fill="#3f3d56"/>
        <path d="M125.44,82a1.86,1.86,0,0,0,.72.24l.64.07a7.82,7.82,0,0,1-.63-.66,2.12,2.12,0,1,1-.73.34Z" fill="#00897b"/>
        <path d="M131.23,90.38h2.09a4.3,4.3,0,0,1,4.3,4.3h0v5.66a.73.73,0,0,1-.73.73h-9.24a.73.73,0,0,1-.73-.73V94.68a4.31,4.31,0,0,1,4.31-4.3Z" fill="#3f3d56"/>
        <g opacity="0.1">
          <path d="M135.46,78l-.27.26.29,0C135.47,78.18,135.47,78.1,135.46,78Z"/>
          <path d="M133.9,77c.22,0,.43,0,.64-.07a1.86,1.86,0,0,0,.56-.15,4,4,0,0,0-.3-.49,1.51,1.51,0,0,1-.35.14A4.25,4.25,0,0,1,133.9,77Z"/>
          <path d="M128.64,78.84a3.63,3.63,0,0,1,5.6-3.06l0-.06a3.63,3.63,0,1,0-4.83,5.43l0,0A3.63,3.63,0,0,1,128.64,78.84Z"/>
        </g>
        <g opacity="0.1">
          <path d="M136.9,82.77l.64-.06a1.76,1.76,0,0,0,.71-.24,2.15,2.15,0,0,1,.87,1.51c0-.07,0-.15,0-.22a2.17,2.17,0,0,0-.86-1.73,1.58,1.58,0,0,1-.72.24l-.17,0A4.25,4.25,0,0,1,136.9,82.77Z"/>
          <path d="M137,82l.22,0,.33-.37a2.13,2.13,0,0,0-2.61,1.51,2.1,2.1,0,0,0-.08.56,1.48,1.48,0,0,0,0,.21A2.15,2.15,0,0,1,137,82Z"/>
        </g>
        <g opacity="0.1">
          <path d="M126.8,82.77l-.64-.06a1.86,1.86,0,0,1-.72-.24,2.17,2.17,0,0,0-.86,1.51c0-.07,0-.15,0-.22a2.17,2.17,0,0,1,.86-1.73,1.58,1.58,0,0,0,.72.24l.17,0A4.25,4.25,0,0,0,126.8,82.77Z"/>
          <path d="M126.72,82l-.22,0-.33-.37a2.13,2.13,0,0,1,2.61,1.51,1.76,1.76,0,0,1,.07.56,1.48,1.48,0,0,1,0,.21A2.14,2.14,0,0,0,126.72,82Z"/>
        </g>
        <path d="M120.91,103.14H104.09a.71.71,0,0,1-.71-.71h0v-8a.71.71,0,0,1,.71-.72.64.64,0,0,1,.31.07c4.83,2.29,10,3.08,16.18,0a.72.72,0,0,1,1,.63v7.92a.72.72,0,0,1-.71.73Z" fill="#00897b"/>
        <path d="M120.91,103.14H104.09a.71.71,0,0,1-.71-.71h0v-8a.71.71,0,0,1,.71-.72.64.64,0,0,1,.31.07c4.83,2.29,10,3.08,16.18,0a.72.72,0,0,1,1,.63v7.92a.72.72,0,0,1-.71.73Z" opacity="0.1" style="isolation: isolate"/>
        <ellipse cx="112.39" cy="95.79" rx="1" ry="1.3" fill="#3f3d56"/>
        <ellipse cx="112.39" cy="94.19" rx="1" ry="1.3" fill="#3f3d56"/>
        <ellipse cx="112.39" cy="92.6" rx="1" ry="1.3" fill="#3f3d56"/>
        <ellipse cx="112.39" cy="91.01" rx="1" ry="1.3" fill="#3f3d56"/>
        <ellipse cx="112.39" cy="89.41" rx="1" ry="1.3" fill="#3f3d56"/>
        <ellipse cx="112.39" cy="87.82" rx="1" ry="1.3" fill="#3f3d56"/>
        <ellipse cx="112.39" cy="86.23" rx="1" ry="1.3" fill="#3f3d56"/>
        <path d="M116.12,75.32a4,4,0,0,0,.37-.54l-2.62-.44,2.83,0a4.72,4.72,0,0,0,.09-3.79l-3.79,2L116.5,70a4.77,4.77,0,1,0-8.26,4.77,4.24,4.24,0,0,0,.38.56,4.86,4.86,0,0,0-.54.87L111.47,78l-3.61-1.23a4.76,4.76,0,0,0,.77,4.48,4.77,4.77,0,1,0,7.5,0,4.78,4.78,0,0,0,0-5.9Z" fill="#00897b"/>
        <path d="M107.6,78.27a4.66,4.66,0,0,0,1,3,4.77,4.77,0,1,0,7.5,0C116.76,80.41,107.6,77.73,107.6,78.27Z" opacity="0.1" style="isolation: isolate"/>
        <path d="M120.91,103.56H104.09a.71.71,0,0,1-.71-.71h0V94.47a.71.71,0,0,1,.71-.72.64.64,0,0,1,.31.07c4.83,2.29,8.67,5,16.18,0a.7.7,0,0,1,1,.63v8.35A.71.71,0,0,1,120.91,103.56Z" fill="#00897b"/>
        <polygon points="245.73 101.19 220.91 104.47 219.67 104.64 207.54 98.16 207.54 96.64 245.45 92.51 245.73 101.19" fill="#9c9ca1"/>
        <polygon points="214.57 98.85 241.45 95.68 241.18 100.64 220.24 102.18 214.57 98.85" fill="#939498"/>
        <path d="M220.91,102.84v1.63l-1.24.18-12.13-6.49V96.64l11.58,6.2A7.56,7.56,0,0,0,220.91,102.84Z" opacity="0.4" style="isolation: isolate"/>
        <path d="M225.68,77l-5.57,25.84a1.64,1.64,0,0,0,1.26,2,1.5,1.5,0,0,0,.56,0l35.25-4.66A1.66,1.66,0,0,0,258.53,99l7.6-22.93A1.65,1.65,0,0,0,265.08,74a1.68,1.68,0,0,0-.59-.08L227.21,75.7A1.66,1.66,0,0,0,225.68,77Z" fill="#3f3d56"/>
        <ellipse cx="244.09" cy="86.42" rx="1.5" ry="0.96" transform="translate(132.62 320.14) rotate(-84)" fill="#fff"/>
      </g>
      <path d="M362.62,198.08a9.27,9.27,0,0,1-6.57,2.72l-32.12,0A13.95,13.95,0,0,1,310,186.89l0-32.12a9.3,9.3,0,0,1,15.87-6.58L341,163.27a66.92,66.92,0,0,0,0-94.53l-5.25-5.25a4.64,4.64,0,1,1,6.56-6.57l5.25,5.25a76.14,76.14,0,0,1,0,107.67,9.31,9.31,0,0,1-13.14,0l-15.08-15.09h0l0,32.13a4.64,4.64,0,0,0,4.65,4.65l32.12,0h0s0,0,0,0h0l-3.6-3.6a4.64,4.64,0,0,1,6.56-6.56l3.6,3.59a9.32,9.32,0,0,1,0,13.16Z" fill="#80cbc4"/>
      <path d="M7.22,58.31a9.31,9.31,0,0,1,6.57-2.71l32.12,0a13.93,13.93,0,0,1,14,14l0,32.12A9.31,9.31,0,0,1,44,108.21L28.86,93.12a66.93,66.93,0,0,0,0,94.54l5.25,5.25a4.64,4.64,0,0,1-6.56,6.56l-5.25-5.25a76.12,76.12,0,0,1,0-107.66,9.29,9.29,0,0,1,13.13,0l15.09,15.08h0v0l0-32.12a4.64,4.64,0,0,0-4.65-4.65l-32.12,0h0s0,0,0,0h0l3.6,3.59a4.65,4.65,0,0,1-6.57,6.57l-3.6-3.6a9.33,9.33,0,0,1,0-13.16Z" fill="#80cbc4"/>
    </g>
  </g>
</svg>
