<svg xmlns="http://www.w3.org/2000/svg" xmlns:xlink="http://www.w3.org/1999/xlink" id="Capa_1" x="0" y="0" version="1.1" viewBox="0 0 512 512" xml:space="preserve" style="enable-background:new 0 0 512 512"><style type="text/css">.st0{fill:#00897b}</style><g><path d="M247.6,131.7c3.1,3.1,8.7,2.5,11.2-1.1l26.1-35.9c2.4-3.3,1.7-8-1.7-10.5c-3.4-2.4-8-1.7-10.5,1.7l-21.1,29 l-13.4-12.5c-3-2.8-7.8-2.7-10.6,0.4c-2.8,3-2.7,7.8,0.4,10.6L247.6,131.7z" class="st0"/><path d="M259,42c-16.8-0.8-32.9,4.9-45.5,15.9c-3.1,2.7-3.4,7.5-0.7,10.6c2.7,3.1,7.5,3.4,10.6,0.7 c9.6-8.5,22-12.8,34.9-12.2c25.2,1.2,45.8,21.8,47,47c0.7,16-6.3,31.4-18.9,41.3c-5.6,4.4-9.2,10.6-10.2,17.5h-39.7 c-1.2-6.7-4.9-12.8-10.6-17.1c-12.3-9.4-19.4-23.8-19.4-39.3c0-3.6,0.4-7.2,1.1-10.6c0.9-4-1.7-8-5.7-8.9c-4.1-0.9-8,1.7-8.9,5.7 c-1,4.5-1.5,9.2-1.5,13.8c0,20.2,9.2,38.9,25.3,51.2c4.2,3.1,5.5,7.9,5.1,12.7v14c0,15.2,12.3,27.5,27.5,27.5h14 c15.2,0,27.5-12.3,27.5-27.5v-14c-0.3-4.9,0.5-10.1,4.7-13.2c16.4-12.8,25.6-32.9,24.6-53.8C318.8,70.4,291.9,43.5,259,42L259,42z M276,184.2c0,6.9-5.6,12.5-12.5,12.5h-14c-6.9,0-12.5-5.6-12.5-12.5v-6.5h39V184.2z" class="st0"/><path d="M434.5,421c-4,1-6.4,5.1-5.4,9.1c0.6,2.4,0.9,4.9,0.9,7.4v9c0,4.1-3.4,7.5-7.5,7.5h-56c-4.1,0-7.5-3.4-7.5-7.5 v-9c0-17.8,16.6-33.5,35.5-33.5c5.5,0,11.1,1.3,16.1,3.9c3.7,1.9,8.2,0.4,10.1-3.3c1.9-3.7,0.4-8.2-3.3-10.1 c-7.1-3.6-15-5.5-22.9-5.5c-27.4,0-50.5,22.2-50.5,48.5v9c0,12.4,10.1,22.5,22.5,22.5h56c12.4,0,22.5-10.1,22.5-22.5v-9 c0-3.8-0.5-7.5-1.4-11.1C442.6,422.4,438.5,420,434.5,421L434.5,421z" class="st0"/><path d="M394.5,378.6c16.5,0,29.9-13.4,29.9-29.9c0-16.5-13.4-29.9-29.9-29.9s-29.9,13.4-29.9,29.9 S378,378.6,394.5,378.6z M394.5,333.7c8.2,0,14.9,6.7,14.9,14.9s-6.7,14.9-14.9,14.9s-14.9-6.7-14.9-14.9S386.3,333.7,394.5,333.7z" class="st0"/><path d="M67,437.6v9c0,12.4,10.1,22.5,22.5,22.5h17.3c4.1,0,7.5-3.4,7.5-7.5s-3.4-7.5-7.5-7.5H89.5 c-4.1,0-7.5-3.4-7.5-7.5v-9c0-17.8,16.6-33.5,35.5-33.5s35.5,15.7,35.5,33.5v9c0,4.1-3.4,7.5-7.5,7.5h-3.3c-4.1,0-7.5,3.4-7.5,7.5 s3.4,7.5,7.5,7.5h3.3c12.4,0,22.5-10.1,22.5-22.5v-9c0-26.3-23.1-48.5-50.5-48.5S67,411.3,67,437.6z" class="st0"/><path d="M87.6,348.6c0,16.5,13.4,29.9,29.9,29.9s29.9-13.4,29.9-29.9c0-16.5-13.4-29.9-29.9-29.9 S87.6,332.1,87.6,348.6z M132.4,348.6c0,8.2-6.7,14.9-14.9,14.9s-14.9-6.7-14.9-14.9s6.7-14.9,14.9-14.9S132.4,340.4,132.4,348.6z" class="st0"/><path d="M394.5,276.8c-7.7,0-15.3,0.8-22.6,2.2l-51.5-51.5c35-21.7,58.4-60.4,58.4-104.5C378.8,55.3,323.7,0.2,256,0.2 S133.2,55.3,133.2,123c0,44.1,23.4,82.8,58.4,104.5L140.1,279c-7.3-1.4-14.9-2.2-22.6-2.2C52.7,276.8,0,329.5,0,394.3 s52.7,117.5,117.5,117.5S235,459.1,235,394.3c0-51-32.7-94.5-78.2-110.7l48.7-48.7c15.4,7,32.6,10.9,50.6,10.9s35.1-3.9,50.6-10.9 l48.7,48.7c-45.5,16.2-78.2,59.7-78.2,110.7c0,64.8,52.7,117.5,117.5,117.5S512,459.1,512,394.3S459.3,276.8,394.5,276.8 L394.5,276.8z M220,394.3c0,56.5-46,102.5-102.5,102.5S15,450.8,15,394.3s46-102.5,102.5-102.5S220,337.8,220,394.3z M148.2,123 c0-59.4,48.4-107.8,107.8-107.8S363.8,63.6,363.8,123S315.4,230.8,256,230.8S148.2,182.4,148.2,123z M394.5,496.8 c-56.5,0-102.5-46-102.5-102.5s46-102.5,102.5-102.5S497,337.8,497,394.3S451,496.8,394.5,496.8z" class="st0"/></g></svg>