<svg xmlns="http://www.w3.org/2000/svg" xmlns:xlink="http://www.w3.org/1999/xlink" id="Capa_1" x="0" y="0" version="1.1" viewBox="0 0 512 512" xml:space="preserve" style="enable-background:new 0 0 512 512"><style type="text/css">.st0{fill:#00897b}</style><g><g><path d="M414.8,263.5h22.3c3.5,17.3,18.8,30.3,37.1,30.3c20.8,0,37.8-17,37.8-37.8s-17-37.8-37.8-37.8 c-18.3,0-33.6,13-37.1,30.3h-22.3c-1.8-38.2-17.1-72.9-41.3-99.5l40.2-40.2c7.9,5.8,17.6,9.2,28.1,9.2c26.4,0,47.9-21.5,47.9-47.9 s-21.5-47.9-47.9-47.9S394,43.7,394,70.1c0,10.5,3.4,20.2,9.2,28.1L363,138.4c-26.5-24.2-61.3-39.5-99.5-41.3V74.9 c17.3-3.5,30.3-18.8,30.3-37.1C293.8,17,276.8,0,256,0s-37.8,17-37.8,37.8c0,18.3,13,33.6,30.3,37.1v22.3 c-38.2,1.8-72.9,17.1-99.5,41.3l-40.2-40.2c5.8-7.9,9.2-17.6,9.2-28.1c0-16-7.9-30.8-21.1-39.7c-3.4-2.3-8.1-1.4-10.4,2 c-2.3,3.4-1.4,8.1,2,10.4C97.6,49,103,59.2,103,70.1c0,18.1-14.8,32.9-32.9,32.9S37.2,88.3,37.2,70.1c0-14.7,9.8-27.7,23.9-31.7 c4-1.1,6.3-5.3,5.2-9.3S61,22.9,57,24c-20.5,5.8-34.8,24.8-34.8,46.1c0,26.4,21.5,47.9,47.9,47.9c10.5,0,20.2-3.4,28.1-9.2 l40.2,40.2c-24.2,26.5-39.5,61.3-41.3,99.5H74.9c-3.5-17.3-18.8-30.3-37.1-30.3C17,218.2,0,235.2,0,256s17,37.8,37.8,37.8 c18.3,0,33.6-13,37.1-30.3h22.3c1.8,38.2,17.1,72.9,41.3,99.5l-40.2,40.2c-7.9-5.8-17.6-9.2-28.1-9.2c-26.4,0-47.9,21.5-47.9,47.9 s21.5,47.9,47.9,47.9s47.9-21.5,47.9-47.9c0-10.5-3.4-20.2-9.2-28.1l40.2-40.2c26.5,24.2,61.3,39.5,99.5,41.3v22.3 c-17.3,3.5-30.3,18.8-30.3,37.1c0,20.8,17,37.8,37.8,37.8s37.8-17,37.8-37.8c0-18.3-13-33.6-30.3-37.1v-22.3 c38.2-1.8,72.9-17.1,99.5-41.3l40.2,40.2c-5.8,7.9-9.2,17.6-9.2,28.1c0,26.4,21.5,47.9,47.9,47.9s47.9-21.5,47.9-47.9 c0-5.2-0.8-10.3-2.5-15.2c-1.3-3.9-5.6-6.1-9.5-4.7c-3.9,1.3-6.1,5.6-4.7,9.5c1.1,3.4,1.7,6.9,1.7,10.4 c0,18.1-14.8,32.9-32.9,32.9S409,460,409,441.9s14.8-32.9,32.9-32.9c4.2,0,8.2,0.8,12,2.3c3.9,1.5,8.2-0.4,9.7-4.2 c1.5-3.9-0.4-8.2-4.2-9.7c-5.6-2.2-11.5-3.3-17.5-3.3c-10.5,0-20.2,3.4-28.1,9.2L373.6,363C397.7,336.4,413.1,301.7,414.8,263.5 L414.8,263.5z M474.2,233.2c12.6,0,22.8,10.2,22.8,22.8c0,12.6-10.2,22.8-22.8,22.8s-22.8-10.2-22.8-22.8S461.6,233.2,474.2,233.2 z M441.9,37.2c18.1,0,32.9,14.8,32.9,32.9c0,18.1-14.8,32.9-32.9,32.9S409,88.3,409,70.1S423.7,37.2,441.9,37.2z M233.2,37.8 c0-12.6,10.2-22.8,22.8-22.8s22.8,10.2,22.8,22.8S268.6,60.6,256,60.6S233.2,50.4,233.2,37.8L233.2,37.8z M37.8,278.8 C25.2,278.8,15,268.6,15,256s10.2-22.8,22.8-22.8s22.8,10.2,22.8,22.8C60.6,268.6,50.4,278.8,37.8,278.8z M256,112 c79.4,0,144,64.6,144,144s-64.6,144-144,144s-144-64.6-144-144S176.6,112,256,112L256,112z M70.1,474.8 c-18.1,0-32.9-14.8-32.9-32.9c0-18.1,14.8-32.9,32.9-32.9s32.9,14.8,32.9,32.9S88.3,474.8,70.1,474.8z M278.8,474.2 c0,12.6-10.2,22.8-22.8,22.8s-22.8-10.2-22.8-22.8s10.2-22.8,22.8-22.8C268.6,451.4,278.8,461.6,278.8,474.2z" class="st0"/><path d="M171.1,348.4h42.4c0,0,0,0,0.1,0s0,0,0.1,0h24.9c4.1,0,7.5-3.4,7.5-7.5s-3.4-7.5-7.5-7.5h-17.4v-12.7 c0-4.1-3.4-7.5-7.5-7.5s-7.5,3.4-7.5,7.5v12.7h-27.4v-36.9c0-18.1,14.8-32.9,32.9-32.9h88.9c18.1,0,32.9,14.8,32.9,32.9v36.9 h-27.4v-12.7c0-4.1-3.4-7.5-7.5-7.5s-7.5,3.4-7.5,7.5v12.7h-17.4c-4.1,0-7.5,3.4-7.5,7.5s3.4,7.5,7.5,7.5h24.9c0,0,0,0,0.1,0 s0,0,0.1,0h42.4c4.1,0,7.5-3.4,7.5-7.5v-44.4c0-26.4-21.5-47.9-47.9-47.9h-5.6c11.7-10.6,19.1-26,19.1-43c0-32-26-58-58-58 s-58,26-58,58c0,17,7.4,32.4,19.1,43h-5.6c-26.4,0-47.9,21.5-47.9,47.9v44.4C163.7,345,167,348.4,171.1,348.4L171.1,348.4z M213,205.5c0-23.7,19.3-43,43-43s43,19.3,43,43s-19.3,43-43,43S213,229.2,213,205.5L213,205.5z" class="st0"/></g></g></svg>