<svg xmlns="http://www.w3.org/2000/svg" xmlns:xlink="http://www.w3.org/1999/xlink" id="Capa_1" x="0" y="0" version="1.1" viewBox="0 0 512 512" xml:space="preserve" style="enable-background:new 0 0 512 512"><style type="text/css">.st0{fill:#00897b}</style><g><g><path d="M450.9,121.9c-2.2-3.5-6.8-4.6-10.3-2.4c-3.5,2.2-4.6,6.8-2.4,10.3c22,35.7,34.3,76.6,35.6,118.7h-92.2 c-3.8-76.2-65.1-137.4-141.2-141.2V15.1c69.1,2.1,133.7,33.6,178,87.1c2.6,3.2,7.4,3.6,10.6,1c3.2-2.6,3.6-7.4,1-10.6 C381,33.8,309.2,0,232.8,0c-4.1,0-7.5,3.4-7.5,7.5v39.1c-45,1.6-87.2,17.1-122.6,45.1c-36.2,28.7-62.3,69.1-73.3,113.8 c-1,4,1.5,8.1,5.5,9.1c0.6,0.1,1.2,0.2,1.8,0.2c3.4,0,6.4-2.3,7.3-5.7c20.9-84.5,94.9-144.2,181.4-147.5v45.6 C146.6,111.2,83.8,176.4,83.8,256c0,37.3,13.6,72.4,38.4,99.9L90,388.1C56.6,352.1,38.2,305.5,38.2,256c0-4.6,0.2-9.2,0.5-13.6 c0.3-4.1-2.8-7.7-7-8c-4.1-0.3-7.7,2.8-8,7c-0.3,4.8-0.5,9.7-0.5,14.7c0,53.5,19.9,103.9,56.2,142.8l-27.7,27.7 c-2.9,2.9-2.9,7.7,0,10.6c48.4,48.4,112.6,75,181,75c68.4,0,132.7-26.6,181-75c2.9-2.9,2.9-7.7,0-10.6l-27.7-27.7 c34.6-37.1,54.3-84.6,56-135.3h39.1c4.1,0,7.5-3.4,7.5-7.5C488.8,208.5,475.7,162.1,450.9,121.9L450.9,121.9z M232.8,497 c-61.9,0-120.2-23.2-165-65.4l65.2-65.2c22.7,20.5,51.4,33.7,81.7,37.3c4.1,0.5,7.9-2.4,8.4-6.5s-2.4-7.9-6.5-8.4 c-29.4-3.6-57.3-17.2-78.3-38.2c0,0,0,0,0,0c-25.3-25.3-39.2-58.9-39.2-94.7c0-73.8,60.1-133.9,133.9-133.9c0,0,0,0,0,0 c73.8,0,133.9,60.1,133.9,133.9c0,0,0,0,0,0c0,35.8-13.9,69.4-39.2,94.7c0,0,0,0,0,0c-21,21-48.6,34.5-77.9,38.2 c-4.1,0.5-7,4.3-6.5,8.4c0.5,4.1,4.3,7,8.4,6.5c30.1-3.8,58.6-16.9,81.2-37.3l65.2,65.2C352.9,473.8,294.6,497,232.8,497 L232.8,497z M375.5,388.1l-32.3-32.3c23.2-25.6,36.6-57.9,38.3-92.4h45.6C425.4,310.2,407.3,353.9,375.5,388.1L375.5,388.1z" class="st0"/><path d="M307.5,331.2c4.1,0,7.5-3.4,7.5-7.5v-34.3c0-26.3-21.3-47.7-47.5-47.9c8.1-8.6,13.1-20.2,13.1-32.9 c0-26.4-21.5-47.9-47.9-47.9s-47.9,21.5-47.9,47.9c0,12.7,5,24.3,13.1,32.9c-26.2,0.2-47.5,21.6-47.5,47.9v34.3 c0,4.1,3.4,7.5,7.5,7.5H307.5z M232.8,175.6c18.1,0,32.9,14.8,32.9,32.9s-14.8,32.9-32.9,32.9s-32.9-14.8-32.9-32.9 S214.6,175.6,232.8,175.6L232.8,175.6z M165.5,289.3c0-18.1,14.8-32.9,32.9-32.9h68.7c18.1,0,32.9,14.8,32.9,32.9v26.8h-27.4 v-12.7c0-4.1-3.4-7.5-7.5-7.5s-7.5,3.4-7.5,7.5v12.7h-49.6v-12.7c0-4.1-3.4-7.5-7.5-7.5s-7.5,3.4-7.5,7.5v12.7h-27.4V289.3z" class="st0"/></g></g></svg>